<svg xmlns="http://www.w3.org/2000/svg" width="52" height="52" viewBox="0 0 52 52">
  <g id="Group_1377" data-name="Group 1377" transform="translate(-32 -536)">
    <rect id="Rectangle" width="52" height="52" rx="8" transform="translate(32 536)" fill="#ebf2f9"/>
    <g id="_22.building-silhouette" data-name="22.building-silhouette" transform="translate(37.127 549)">
      <path id="Path_2219" data-name="Path 2219" d="M30.368,0H11.446a.573.573,0,0,0-.573.573V25.721a.573.573,0,0,0,.573.573h5.548a.573.573,0,0,0,.573-.573V21.165h6.681v4.557a.573.573,0,0,0,.573.573h5.548a.573.573,0,0,0,.573-.573V.573A.572.572,0,0,0,30.368,0ZM17.208,16.893a.429.429,0,0,1-.43.43H14.225a.429.429,0,0,1-.43-.43V14.34a.429.429,0,0,1,.43-.43h2.553a.429.429,0,0,1,.43.43Zm0-5.4a.429.429,0,0,1-.43.43H14.225a.429.429,0,0,1-.43-.43V8.935a.429.429,0,0,1,.43-.43h2.553a.429.429,0,0,1,.43.43Zm0-5.4a.429.429,0,0,1-.43.43H14.225a.429.429,0,0,1-.43-.43V3.531a.429.429,0,0,1,.43-.43h2.553a.429.429,0,0,1,.43.43Zm5.4,10.809a.429.429,0,0,1-.43.43H19.63a.429.429,0,0,1-.43-.43V14.34a.429.429,0,0,1,.43-.43h2.553a.429.429,0,0,1,.43.43Zm0-5.4a.429.429,0,0,1-.43.43H19.63a.429.429,0,0,1-.43-.43V8.935a.429.429,0,0,1,.43-.43h2.553a.429.429,0,0,1,.43.43Zm0-5.4a.429.429,0,0,1-.43.43H19.63a.429.429,0,0,1-.43-.43V3.531a.429.429,0,0,1,.43-.43h2.553a.429.429,0,0,1,.43.43Zm5.4,10.809a.429.429,0,0,1-.43.43H25.035a.429.429,0,0,1-.43-.43V14.34a.429.429,0,0,1,.43-.43h2.553a.429.429,0,0,1,.43.43Zm0-5.4a.429.429,0,0,1-.43.43H25.035a.429.429,0,0,1-.43-.43V8.935a.429.429,0,0,1,.43-.43h2.553a.429.429,0,0,1,.43.43Zm0-5.4a.429.429,0,0,1-.43.43H25.035a.429.429,0,0,1-.43-.43V3.531a.429.429,0,0,1,.43-.43h2.553a.429.429,0,0,1,.43.43Z" transform="translate(0 0)" fill="#04458f"/>
    </g>
  </g>
</svg>
