<svg xmlns="http://www.w3.org/2000/svg" width="52.458" height="53.936" viewBox="0 0 52.458 53.936">
  <g id="Group_1373" data-name="Group 1373" transform="translate(-32 -211)">
    <g id="Group_4" data-name="Group 4" transform="translate(32 211)">
      <rect id="Rectangle" width="52.458" height="53.936" rx="8" fill="#ebf2f9"/>
    </g>
    <g id="_27.exam" data-name="27.exam" transform="translate(-13 225)">
      <g id="Group_1285" data-name="Group 1285" transform="translate(65.615)">
        <g id="Group_1284" data-name="Group 1284" transform="translate(0)">
          <path id="Path_2225" data-name="Path 2225" d="M159.462,1.538h-.9a2.308,2.308,0,0,0-4.353,0h-.9A2.31,2.31,0,0,0,151,3.846a.769.769,0,0,0,.769.769H161a.769.769,0,0,0,.769-.769A2.31,2.31,0,0,0,159.462,1.538Z" transform="translate(-151)" fill="#04458f"/>
        </g>
      </g>
      <g id="Group_1287" data-name="Group 1287" transform="translate(61 3.077)">
        <g id="Group_1286" data-name="Group 1286" transform="translate(0)">
          <path id="Path_2226" data-name="Path 2226" d="M78.692,60h-.847a3.845,3.845,0,0,1,.078.769,2.31,2.31,0,0,1-2.308,2.308H66.385a2.31,2.31,0,0,1-2.308-2.308A3.845,3.845,0,0,1,64.155,60h-.847A2.31,2.31,0,0,0,61,62.308V80.872a2.31,2.31,0,0,0,2.308,2.308H78.692A2.31,2.31,0,0,0,81,80.872V62.308A2.31,2.31,0,0,0,78.692,60Zm-10,18.462H65.615a.769.769,0,1,1,0-1.538h3.077a.769.769,0,0,1,0,1.538Zm0-5.385H65.615a.769.769,0,1,1,0-1.538h3.077a.769.769,0,0,1,0,1.538Zm0-5.385H65.615a.769.769,0,1,1,0-1.538h3.077a.769.769,0,0,1,0,1.538Zm7.467,10.995a.769.769,0,1,1-1.088,1.088l-.995-.995-.995.995a.769.769,0,0,1-1.088-1.088l.995-.995-.995-.995a.769.769,0,0,1,1.088-1.088l.995.995.995-.995A.769.769,0,0,1,76.159,76.7l-.995.995Zm.769-7.374-2.308,2.308a.769.769,0,0,1-1.088,0l-1.538-1.538a.769.769,0,0,1,1.088-1.088l.995.995,1.764-1.764a.769.769,0,1,1,1.088,1.088Zm0-4.615-2.308,2.308a.769.769,0,0,1-1.088,0l-1.538-1.538a.769.769,0,0,1,1.088-1.088l.995.995,1.764-1.764A.769.769,0,1,1,76.928,66.7Z" transform="translate(-61 -60)" fill="#04458f"/>
        </g>
      </g>
    </g>
  </g>
</svg>
