<svg xmlns="http://www.w3.org/2000/svg" width="52" height="52" viewBox="0 0 52 52">
  <g id="Group_1381" data-name="Group 1381" transform="translate(-32 -859)">
    <rect id="Rectangle" width="52" height="52" rx="8" transform="translate(32 859)" fill="#ebf2f9"/>
    <g id="_35.podium" data-name="35.podium" transform="translate(45 858.542)">
      <g id="Group_1307" data-name="Group 1307" transform="translate(0 28.701)">
        <g id="Group_1306" data-name="Group 1306">
          <path id="Path_2242" data-name="Path 2242" d="M1.75,302.517A1.752,1.752,0,0,0,0,304.267V311.1a1.752,1.752,0,0,0,1.75,1.75H6.888V302.517Z" transform="translate(0 -302.517)" fill="#04458f"/>
        </g>
      </g>
      <g id="Group_1309" data-name="Group 1309" transform="translate(20.111 31.857)">
        <g id="Group_1308" data-name="Group 1308">
          <path id="Path_2243" data-name="Path 2243" d="M386.517,362.37h-5.138v7.181h5.138a1.752,1.752,0,0,0,1.75-1.75v-3.68A1.752,1.752,0,0,0,386.517,362.37Z" transform="translate(-381.379 -362.37)" fill="#04458f"/>
        </g>
      </g>
      <g id="Group_1311" data-name="Group 1311" transform="translate(8.472 24.738)">
        <g id="Group_1310" data-name="Group 1310">
          <path id="Path_2244" data-name="Path 2244" d="M168.96,227.361h-6.555a1.752,1.752,0,0,0-1.75,1.75v12.55h10.056v-12.55A1.752,1.752,0,0,0,168.96,227.361Zm-3.119,8.16a.792.792,0,0,1-.792-.792v-1.609l-.007.005a.792.792,0,0,1-.95-1.267l1.274-.956.015-.01.037-.025.029-.018.038-.02.032-.016.037-.015.036-.013.037-.011.039-.01.035-.007.043-.006.034,0,.045,0h.034l.043,0,.037,0,.037.006.041.008.033.008.041.012.032.012.038.015.035.017.033.017.036.022.028.018.035.026.026.021.031.029.026.026.026.028.027.033.011.013.01.015.025.037.018.029.02.038.016.033c.005.012.01.025.015.037s.009.024.013.036.008.024.011.036.007.026.01.039,0,.023.007.035,0,.028.006.043,0,.023,0,.034,0,.03,0,.045,0,.012,0,.018v3.192h0A.792.792,0,0,1,165.841,235.521Z" transform="translate(-160.655 -227.361)" fill="#04458f"/>
        </g>
      </g>
      <g id="Group_1313" data-name="Group 1313" transform="translate(9.031 13.458)">
        <g id="Group_1312" data-name="Group 1312" transform="translate(0 0)">
          <path id="Path_2245" data-name="Path 2245" d="M180.155,16.671a.914.914,0,0,0-.742-.626l-1.973-.287-.882-1.788a.92.92,0,0,0-1.649,0l-.883,1.788-1.973.287a.919.919,0,0,0-.51,1.568l1.428,1.392-.337,1.966a.919.919,0,0,0,1.334.969l1.765-.928,1.765.928a.92.92,0,0,0,1.334-.969l-.337-1.965,1.428-1.392A.914.914,0,0,0,180.155,16.671Z" transform="translate(-171.264 -13.458)" fill="#04458f"/>
        </g>
      </g>
    </g>
  </g>
</svg>
