<svg xmlns="http://www.w3.org/2000/svg" width="52" height="52" viewBox="0 0 52 52">
  <g id="Group_1379" data-name="Group 1379" transform="translate(-32 -697)">
    <g id="Group_4" data-name="Group 4" transform="translate(32 697)">
      <rect id="Rectangle" width="52" height="52" rx="8" fill="#ebf2f9"/>
    </g>
    <g id="_33.test" data-name="33.test" transform="translate(44 709)">
      <g id="Group_1296" data-name="Group 1296" transform="translate(5.728)">
        <g id="Group_1295" data-name="Group 1295">
          <path id="Path_2235" data-name="Path 2235" d="M114.916,1.621h-2.432a1.621,1.621,0,1,0-3.242,0h-2.432a.858.858,0,0,0-.811.865V3.3a1.621,1.621,0,0,0,1.621,1.621h6.484A1.621,1.621,0,0,0,115.726,3.3V2.486A.858.858,0,0,0,114.916,1.621Z" transform="translate(-106)" fill="#04458f"/>
        </g>
      </g>
      <g id="Group_1298" data-name="Group 1298" transform="translate(0 3.296)">
        <g id="Group_1297" data-name="Group 1297">
          <path id="Path_2236" data-name="Path 2236" d="M18.75,61H17.129a3.292,3.292,0,0,1-3.3,3.242H7.349A3.245,3.245,0,0,1,4.107,61H2.486A2.481,2.481,0,0,0,0,63.432V82.884A2.528,2.528,0,0,0,2.486,85.37H18.75a2.481,2.481,0,0,0,2.432-2.486V63.432A2.434,2.434,0,0,0,18.75,61ZM3.534,67.247A.81.81,0,0,1,4.68,66.1l1.048,1.048L6.776,66.1a.81.81,0,1,1,1.146,1.146L6.874,68.295l1.048,1.048a.81.81,0,1,1-1.146,1.146L5.728,69.441,4.68,70.489a.81.81,0,0,1-1.146-1.146l1.048-1.048ZM9.543,78.594,6.3,81.836a.81.81,0,0,1-1.146,0L3.534,80.215A.81.81,0,1,1,4.68,79.069l1.048,1.048L8.4,77.448a.81.81,0,0,1,1.146,1.146Zm0-5.674L6.3,76.163a.81.81,0,0,1-1.146,0L3.534,74.542A.81.81,0,1,1,4.68,73.4l1.048,1.048L8.4,71.774A.81.81,0,0,1,9.543,72.92Zm7.586,7.532H12.212a.811.811,0,1,1,0-1.621h4.917a.811.811,0,1,1,0,1.621Zm0-5.674H12.212a.811.811,0,0,1,0-1.621h4.917a.811.811,0,0,1,0,1.621Zm0-5.674H12.212a.811.811,0,0,1,0-1.621h4.917a.811.811,0,0,1,0,1.621Z" transform="translate(0 -61)" fill="#04458f"/>
        </g>
      </g>
      <g id="Group_1300" data-name="Group 1300" transform="translate(22.803 4.917)">
        <g id="Group_1299" data-name="Group 1299">
          <path id="Path_2237" data-name="Path 2237" d="M424.432,91A2.434,2.434,0,0,0,422,93.432v2.432h4.863V93.432A2.434,2.434,0,0,0,424.432,91Z" transform="translate(-422 -91)" fill="#04458f"/>
        </g>
      </g>
      <g id="Group_1303" data-name="Group 1303" transform="translate(22.803 11.401)">
        <g id="Group_1302" data-name="Group 1302">
          <g id="Group_1301" data-name="Group 1301">
            <path id="Path_2238" data-name="Path 2238" d="M422,369.789Z" transform="translate(-422 -361.209)" fill="#04458f"/>
            <path id="Path_2239" data-name="Path 2239" d="M422,211v8.58l.237-.237a3.107,3.107,0,0,1,4.388,0l.237.237V211Z" transform="translate(-422.001 -211)" fill="#04458f"/>
          </g>
        </g>
      </g>
      <g id="Group_1305" data-name="Group 1305" transform="translate(23.259 20.457)">
        <g id="Group_1304" data-name="Group 1304">
          <path id="Path_2240" data-name="Path 2240" d="M433.472,379.019a1.484,1.484,0,0,0-2.1,0l-.927.927,1.207,3.62a.81.81,0,0,0,1.537,0l1.206-3.62Z" transform="translate(-430.449 -378.585)" fill="#04458f"/>
        </g>
      </g>
    </g>
  </g>
</svg>
