<svg xmlns="http://www.w3.org/2000/svg" width="52" height="52" viewBox="0 0 52 52">
  <g id="Group_1380" data-name="Group 1380" transform="translate(-32 -778)">
    <rect id="Rectangle" width="52" height="52" rx="8" transform="translate(32 778)" fill="#ebf2f9"/>
    <g id="_34.waiting-place" data-name="34.waiting-place" transform="translate(41 720.087)">
      <path id="Path_2241" data-name="Path 2241" d="M10.035,74.845V78.1a.756.756,0,0,1-.756.756H2.927a.756.756,0,0,1-.756-.756V74.845a3.932,3.932,0,0,1,7.864,0ZM16.8,70.913a3.936,3.936,0,0,0-3.932,3.932V78.1a.756.756,0,0,0,.756.756h6.352a.756.756,0,0,0,.756-.756V74.845A3.937,3.937,0,0,0,16.8,70.913Zm10.694,0a3.936,3.936,0,0,0-3.932,3.932V78.1a.756.756,0,0,0,.756.756h6.352a.756.756,0,0,0,.756-.756V74.845A3.937,3.937,0,0,0,27.491,70.913Zm5.347,4.211a.756.756,0,0,0-.756.756v3.588H22.9V75.88a.756.756,0,1,0-1.512,0v3.588H12.206V75.88a.756.756,0,1,0-1.512,0v3.588H1.512V75.88A.756.756,0,1,0,0,75.88v6.633a.756.756,0,1,0,1.512,0V80.98h9.182v1.533a.756.756,0,1,0,1.512,0V80.98h9.182v1.533a.756.756,0,1,0,1.512,0V80.98h9.182v1.533a.756.756,0,1,0,1.512,0V75.88A.757.757,0,0,0,32.838,75.124ZM6.1,84.365A3.936,3.936,0,0,0,2.171,88.3v3.256a.756.756,0,0,0,.756.756H9.279a.756.756,0,0,0,.756-.756V88.3A3.937,3.937,0,0,0,6.1,84.365Zm10.694,0A3.936,3.936,0,0,0,12.865,88.3v3.256a.756.756,0,0,0,.756.756h6.352a.756.756,0,0,0,.756-.756V88.3A3.937,3.937,0,0,0,16.8,84.365Zm10.694,0A3.936,3.936,0,0,0,23.559,88.3v3.256a.756.756,0,0,0,.756.756h6.352a.756.756,0,0,0,.756-.756V88.3A3.937,3.937,0,0,0,27.491,84.365Zm5.347,4.211a.756.756,0,0,0-.756.756V92.92H22.9V89.332a.756.756,0,1,0-1.512,0V92.92H12.206V89.332a.756.756,0,1,0-1.512,0V92.92H1.512V89.332a.756.756,0,1,0-1.512,0v6.633a.756.756,0,1,0,1.512,0V94.432h9.182v1.533a.756.756,0,1,0,1.512,0V94.432h9.182v1.533a.756.756,0,1,0,1.512,0V94.432h9.182v1.533a.756.756,0,1,0,1.512,0V89.332A.757.757,0,0,0,32.838,88.576Z" transform="translate(0 0)" fill="#04458f"/>
    </g>
  </g>
</svg>
