<svg xmlns="http://www.w3.org/2000/svg" width="36.627" height="38.723" viewBox="0 0 36.627 38.723">
  <g id="_2.About_institute" data-name="2.About institute" transform="translate(-10.828)">
    <g id="Group_1186" data-name="Group 1186" transform="translate(10.828)">
      <path id="Path_2162" data-name="Path 2162" d="M46.264,34.852v-17.5A1.654,1.654,0,0,0,44.61,15.7H36.758V10.939a1.241,1.241,0,0,0-.636-1.083L29.746,6.3c-.035-.02-.071-.037-.108-.053V4.219h3.433a.5.5,0,0,0,.5-.5V1.216a.5.5,0,0,0-.5-.5H29.638V.5a.5.5,0,1,0-.992,0V6.248c-.036.016-.073.033-.108.053L22.162,9.856a1.24,1.24,0,0,0-.636,1.083V15.7H13.673a1.654,1.654,0,0,0-1.653,1.654v17.5a2.025,2.025,0,0,0,.834,3.871H45.429a2.025,2.025,0,0,0,.834-3.871ZM39.872,21.464a.963.963,0,0,1,.964-.963h1.8a.963.963,0,0,1,.963.963v1.8a.963.963,0,0,1-.963.963h-1.8a.963.963,0,0,1-.964-.963v-1.8Zm0,5.788a.963.963,0,0,1,.964-.963h1.8a.963.963,0,0,1,.963.963v1.8a.963.963,0,0,1-.963.963h-1.8a.963.963,0,0,1-.964-.963v-1.8Zm-5.787-5.788a.963.963,0,0,1,.963-.963h1.8a.963.963,0,0,1,.963.963v1.8a.963.963,0,0,1-.963.963h-1.8a.963.963,0,0,1-.963-.963Zm0,5.788a.963.963,0,0,1,.963-.963h1.8a.963.963,0,0,1,.963.963v1.8a.963.963,0,0,1-.963.963h-1.8a.963.963,0,0,1-.963-.963ZM29.141,10.943a2.728,2.728,0,1,1-2.728,2.728A2.728,2.728,0,0,1,29.141,10.943ZM26.409,26.606a.963.963,0,0,1,.964-.963H30.91a.963.963,0,0,1,.963.963V34.2a.957.957,0,0,1-.127.477h-5.21a.957.957,0,0,1-.127-.477V26.606Zm-5.939-5.142a.963.963,0,0,1,.963-.963h1.8a.963.963,0,0,1,.963.963v1.8a.963.963,0,0,1-.963.963h-1.8a.963.963,0,0,1-.963-.963Zm0,5.788a.963.963,0,0,1,.963-.963h1.8a.963.963,0,0,1,.963.963v1.8a.963.963,0,0,1-.963.963h-1.8a.963.963,0,0,1-.963-.963Zm-5.788-5.788a.963.963,0,0,1,.963-.963h1.8a.963.963,0,0,1,.963.963v1.8a.963.963,0,0,1-.963.963h-1.8a.963.963,0,0,1-.963-.963v-1.8Zm0,5.788a.963.963,0,0,1,.963-.963h1.8a.963.963,0,0,1,.963.963v1.8a.963.963,0,0,1-.963.963h-1.8a.963.963,0,0,1-.963-.963v-1.8Z" transform="translate(-10.828 0)" fill="#04458f"/>
    </g>
  </g>
</svg>
