<svg xmlns="http://www.w3.org/2000/svg" width="52" height="52" viewBox="0 0 52 52">
  <g id="Group_1480" data-name="Group 1480" transform="translate(-32 -374)">
    <g id="Group_4" data-name="Group 4" transform="translate(32 374)">
      <rect id="Rectangle" width="52" height="52" rx="8" fill="#ebf2f9"/>
    </g>
    <g id="_48.credit-card-payment" data-name="48.credit-card-payment" transform="translate(43 386.88)">
      <g id="Group_1407" data-name="Group 1407" transform="translate(0 3.12)">
        <path id="Path_2298" data-name="Path 2298" d="M28.254,3.12l-16.739.009A1.738,1.738,0,0,0,9.776,4.87v.8a3.375,3.375,0,0,0-1.36-.261,5.263,5.263,0,0,0-1.352.179.925.925,0,0,0-.365.2l-6.38,5.59A.948.948,0,0,0,0,12.1l.055,9.2a1.109,1.109,0,0,0,1.067.912c.025,0,2.4.1,4.507.1a24.668,24.668,0,0,0,2.763-.106,4.47,4.47,0,0,0,2.722-1.024c.316-.231.6-.458.892-.686a1.993,1.993,0,0,0,3.353,1.921,2.034,2.034,0,0,0,.7.612,2.059,2.059,0,0,0,.9.213,1.99,1.99,0,0,0,1.78-1.1l1.323-2.605a1.98,1.98,0,0,0,.125-1.525,1.911,1.911,0,0,0-.234-.46l8.282,0a1.746,1.746,0,0,0,1.744-1.739l.006-10.946A1.755,1.755,0,0,0,28.254,3.12ZM15.922,18.758,14.6,21.366a.748.748,0,1,1-1.336-.675l1.086-2.139s.356-.868.923-.877a.733.733,0,0,1,.319.079.741.741,0,0,1,.371.433A.718.718,0,0,1,15.922,18.758Zm-2.08-2.294-1.194,1.094h.011c-.748.648-1.638,1.367-2.733,2.177a.419.419,0,0,0-.147.136,3.208,3.208,0,0,1-1.614.481c-.341.043-1.056.036-2.534.036-1.285,0-2.885.019-3.759-.011l.014-7.882L7.757,7.349a3.623,3.623,0,0,1,.659-.065,1.127,1.127,0,0,1,.789.209V14a.937.937,0,0,0,.458.8c.033.019.071.016.106.032v.07l.087-.044a.9.9,0,0,0,.734-.036c1.459-.79,4.224-2.047,5.429-2.047a.769.769,0,0,1,.131.006.15.15,0,0,0,.016.027C16.191,12.935,16.311,14.02,13.842,16.464Zm5.111,2.512-1.32,2.608a.762.762,0,0,1-1.007.33.75.75,0,0,1-.327-1.005L17.62,18.3a.745.745,0,0,1,.667-.413.755.755,0,0,1,.34.084A.735.735,0,0,1,19,18.4.722.722,0,0,1,18.953,18.976Zm9.875-3.154a.58.58,0,0,1-.58.58l-11.818,0a6.456,6.456,0,0,0,1.612-3.187,2.143,2.143,0,0,0-.308-1.434,1.774,1.774,0,0,0-1.715-.881,14.315,14.315,0,0,0-4.938,1.575v-2.6l17.75,0Zm0-9.392L10.935,6.422V4.867a.579.579,0,0,1,.579-.58l16.741-.013a.6.6,0,0,1,.58.6Z" transform="translate(0 -3.12)" fill="#04458f"/>
        <path id="Path_2299" data-name="Path 2299" d="M19.091,11.421l-.013-1.573-4.583,0,.014,1.576Z" transform="translate(8.42 0.786)" fill="#04458f"/>
      </g>
    </g>
  </g>
</svg>
