<svg xmlns="http://www.w3.org/2000/svg" width="52" height="52" viewBox="0 0 52 52">
  <g id="Group_1479" data-name="Group 1479" transform="translate(-32 -294)">
    <g id="Group_4" data-name="Group 4" transform="translate(32 294)">
      <rect id="Rectangle" width="52" height="52" rx="8" fill="#ebf2f9"/>
    </g>
    <g id="_47.money-bag" data-name="47.money-bag" transform="translate(44 306)">
      <path id="Path_2292" data-name="Path 2292" d="M10.847,171.922a19.675,19.675,0,0,0,5.864-.713,2.845,2.845,0,0,1,.825-2.607,2.89,2.89,0,0,1,0-4.15,2.89,2.89,0,0,1,0-4.15,2.886,2.886,0,0,1,.317-4.412,11.774,11.774,0,0,0-1.575-1.214,1.626,1.626,0,0,0,.379-1.015A1.66,1.66,0,0,0,15,152H6.7a1.66,1.66,0,0,0-1.66,1.66,1.627,1.627,0,0,0,.378,1.013A11.881,11.881,0,0,0,0,164.451c0,6.7,6.214,7.471,10.847,7.471Zm-.009-8.058a2.484,2.484,0,0,1-.821-4.83v-1.224a.83.83,0,1,1,1.66,0v1.229a2.486,2.486,0,0,1,1.651,2.334.83.83,0,1,1-1.66,0,.83.83,0,1,0-.83.83,2.484,2.484,0,0,1,.839,4.825v.743a.83.83,0,0,1-1.66,0v-.737a2.486,2.486,0,0,1-1.669-2.34.83.83,0,0,1,1.66,0,.83.83,0,1,0,.83-.83Zm0,0" transform="translate(0 -143.588)" fill="#04458f"/>
      <path id="Path_2293" data-name="Path 2293" d="M339.771,467h-7.526a1.245,1.245,0,0,0,0,2.49h7.526a1.245,1.245,0,0,0,0-2.49Zm0,0" transform="translate(-312.682 -441.156)" fill="#04458f"/>
      <path id="Path_2294" data-name="Path 2294" d="M339.771,392h-7.526a1.245,1.245,0,0,0,0,2.49h7.526a1.245,1.245,0,0,0,0-2.49Zm0,0" transform="translate(-312.682 -370.307)" fill="#04458f"/>
      <path id="Path_2295" data-name="Path 2295" d="M339.771,317h-7.526a1.245,1.245,0,0,0,0,2.49h7.526a1.245,1.245,0,0,0,0-2.49Zm0,0" transform="translate(-312.682 -299.457)" fill="#04458f"/>
      <path id="Path_2296" data-name="Path 2296" d="M339.771,242h-7.526a1.245,1.245,0,0,0,0,2.49h7.526a1.245,1.245,0,0,0,0-2.49Zm0,0" transform="translate(-312.682 -228.608)" fill="#04458f"/>
      <path id="Path_2297" data-name="Path 2297" d="M99.148,1.66a2.483,2.483,0,0,0-4.686,0H91.83a.829.829,0,0,0-.787,1.093l1.3,4h8.944l1.3-4a.829.829,0,0,0-.787-1.093Zm0,0" transform="translate(-85.963)" fill="#04458f"/>
    </g>
  </g>
</svg>
