<svg xmlns="http://www.w3.org/2000/svg" width="52" height="52" viewBox="0 0 52 52">
  <g id="Group_1378" data-name="Group 1378" transform="translate(-32 -617)">
    <g id="Group_4" data-name="Group 4" transform="translate(32 617)">
      <rect id="Rectangle" width="52" height="52" rx="8" fill="#ebf2f9"/>
    </g>
    <g id="_23.blackboard" data-name="23.blackboard" transform="translate(32.1 630)">
      <path id="Path_2220" data-name="Path 2220" d="M454.65,1.075a1.075,1.075,0,0,0-2.15,0v.879h2.15Z" transform="translate(-427.786)" fill="#04458f"/>
      <path id="Path_2221" data-name="Path 2221" d="M38.65,131.212a1.614,1.614,0,0,0-1.612-1.612H14.512a1.614,1.614,0,0,0-1.612,1.612V143.1a1.614,1.614,0,0,0,1.612,1.612H37.038A1.614,1.614,0,0,0,38.65,143.1V131.212Z" transform="translate(0 -126.117)" fill="#04458f"/>
      <path id="Path_2222" data-name="Path 2222" d="M118.23,753.075a1.075,1.075,0,0,0-.986-1.072c-.03,0-.059,0-.089,0H98.075l-.089,0a1.075,1.075,0,0,0,.089,2.147H100.3l-1.346,2.5a1.076,1.076,0,0,0,1.895,1.021l1.895-3.52h3.811v3.01a1.075,1.075,0,1,0,2.15,0v-3.01h3.784l1.895,3.52a1.074,1.074,0,0,0,.949.564,1.049,1.049,0,0,0,.508-.129,1.076,1.076,0,0,0,.438-1.457l-1.346-2.5h2.228A1.075,1.075,0,0,0,118.23,753.075Z" transform="translate(-81.84 -731.791)" fill="#04458f"/>
    </g>
  </g>
</svg>
