<svg xmlns="http://www.w3.org/2000/svg" width="32" height="32" viewBox="0 0 32 32">
  <g id="Group_1276" data-name="Group 1276" transform="translate(-649 -3371)">
    <g id="Group_1281" data-name="Group 1281">
      <rect id="Rectangle" width="32" height="32" rx="6" transform="translate(649 3371)" fill="#ebf2f9"/>
      <path id="_26blood-drop" data-name="26blood-drop" d="M6.716,14.721v-1.9h-1.9a.759.759,0,1,1,0-1.518h1.9v-1.9a.759.759,0,1,1,1.518,0v1.9h1.9a.759.759,0,0,1,0,1.518h-1.9v1.9a.759.759,0,1,1-1.518,0ZM11.5,4.441C9.807,2.147,8.143.323,8.073.246a.759.759,0,0,0-1.12,0c-.07.077-1.735,1.9-3.428,4.2C1.186,7.612,0,10.05,0,11.688V11.9a7.511,7.511,0,0,0,11.186,6.57.759.759,0,1,0-.744-1.323A5.994,5.994,0,0,1,1.518,11.9v-.207c0-1.268,1.144-3.518,3.221-6.335C5.805,3.907,6.882,2.629,7.513,1.9c.629.723,1.7,2,2.766,3.439,2.082,2.822,3.229,5.076,3.229,6.346V11.9a5.959,5.959,0,0,1-.677,2.779.759.759,0,1,0,1.346.7,7.566,7.566,0,0,0,.849-3.48v-.207c0-1.638-1.186-4.076-3.525-7.247Zm0,0" transform="translate(657 3377)" fill="#04458f"/>
    </g>
  </g>
</svg>
