<svg xmlns="http://www.w3.org/2000/svg" width="52" height="52" viewBox="0 0 52 52">
  <g id="Group_1481" data-name="Group 1481" transform="translate(-32 -455)">
    <rect id="Rectangle" width="52" height="52" rx="8" transform="translate(32 455)" fill="#ebf2f9"/>
    <g id="_49.presentation" data-name="49.presentation" transform="translate(47 470)">
      <path id="Path_2300" data-name="Path 2300" d="M.645,396.2H6.488v-1.934A3.26,3.26,0,0,0,3.266,391,3.3,3.3,0,0,0,0,394.266v1.289A.644.644,0,0,0,.645,396.2Zm0,0" transform="translate(0 -374.199)" fill="#04458f"/>
      <path id="Path_2301" data-name="Path 2301" d="M33.91,302.934A1.934,1.934,0,0,0,31.977,301a1.934,1.934,0,1,0,0,3.867A1.934,1.934,0,0,0,33.91,302.934Zm0,0" transform="translate(-28.711 -288.066)" fill="#04458f"/>
      <path id="Path_2302" data-name="Path 2302" d="M181,394.266V396.2h6.488v-1.934A3.3,3.3,0,0,0,184.223,391,3.26,3.26,0,0,0,181,394.266Zm0,0" transform="translate(-173.223 -374.199)" fill="#04458f"/>
      <path id="Path_2303" data-name="Path 2303" d="M214.91,302.934A1.971,1.971,0,0,0,212.934,301a1.934,1.934,0,0,0,0,3.867A1.971,1.971,0,0,0,214.91,302.934Zm0,0" transform="translate(-201.934 -288.066)" fill="#04458f"/>
      <path id="Path_2304" data-name="Path 2304" d="M365.223,391A3.26,3.26,0,0,0,362,394.266V396.2h5.8a.644.644,0,0,0,.645-.645v-1.289A3.26,3.26,0,0,0,365.223,391Zm0,0" transform="translate(-346.445 -374.199)" fill="#04458f"/>
      <path id="Path_2305" data-name="Path 2305" d="M395.867,302.934A1.934,1.934,0,1,1,393.934,301,1.934,1.934,0,0,1,395.867,302.934Zm0,0" transform="translate(-375.156 -288.066)" fill="#04458f"/>
      <path id="Path_2306" data-name="Path 2306" d="M395.867,62.934A1.934,1.934,0,1,1,393.934,61,1.934,1.934,0,0,1,395.867,62.934Zm0,0" transform="translate(-375.156 -58.379)" fill="#04458f"/>
      <path id="Path_2307" data-name="Path 2307" d="M365.223,151A3.223,3.223,0,0,0,362,154.223v5.156a3.223,3.223,0,0,1,6.445,0v-5.156A3.223,3.223,0,0,0,365.223,151Zm0,0" transform="translate(-346.445 -144.512)" fill="#04458f"/>
      <path id="Path_2308" data-name="Path 2308" d="M.645,10.355H14.266V9.711a4.492,4.492,0,0,1,1.289-3.147V.645A.644.644,0,0,0,14.91,0H.645A.644.644,0,0,0,0,.645V9.711A.644.644,0,0,0,.645,10.355Zm7.133-7.09a.645.645,0,0,1,1.289,0V7.133a.645.645,0,0,1-1.289,0ZM5.2,4.555a.645.645,0,0,1,1.289,0V7.133a.645.645,0,0,1-1.289,0ZM2.621,5.844a.645.645,0,0,1,1.289,0V7.133a.645.645,0,0,1-1.289,0Zm0,0" fill="#04458f"/>
    </g>
  </g>
</svg>
