<svg xmlns="http://www.w3.org/2000/svg" width="52" height="52" viewBox="0 0 52 52">
  <g id="Group_1476" data-name="Group 1476" transform="translate(-32 -296)">
    <g id="Group_4" data-name="Group 4" transform="translate(32 296)">
      <rect id="Rectangle" width="52" height="52" rx="8" fill="#ebf2f9"/>
    </g>
    <g id="_43.class_routine" data-name="43.class routine" transform="translate(43 307)">
      <g id="Group_1393" data-name="Group 1393">
        <g id="Group_1392" data-name="Group 1392">
          <path id="Path_2278" data-name="Path 2278" d="M25.4,1.882H23.521V.941a.941.941,0,1,0-1.882,0v.941H17.876V.941a.941.941,0,0,0-1.882,0v.941H12.231V.941a.941.941,0,1,0-1.882,0v.941H6.586V.941A.941.941,0,0,0,4.7.941v.941H2.823A2.826,2.826,0,0,0,0,4.7v22.58a.94.94,0,0,0,.941.941H16.487A8.46,8.46,0,0,1,28.225,16.487V4.7A2.826,2.826,0,0,0,25.4,1.882ZM6.586,24.462H4.7a.941.941,0,0,1,0-1.882H6.586a.941.941,0,0,1,0,1.882Zm0-3.763H4.7a.941.941,0,0,1,0-1.882H6.586a.941.941,0,0,1,0,1.882Zm0-3.763H4.7a.941.941,0,1,1,0-1.882H6.586a.941.941,0,1,1,0,1.882Zm0-3.763H4.7a.941.941,0,1,1,0-1.882H6.586a.941.941,0,1,1,0,1.882Zm5.645,11.29H10.349a.941.941,0,1,1,0-1.882h1.882a.941.941,0,0,1,0,1.882Zm0-3.763H10.349a.941.941,0,1,1,0-1.882h1.882a.941.941,0,0,1,0,1.882Zm0-3.763H10.349a.941.941,0,1,1,0-1.882h1.882a.941.941,0,1,1,0,1.882Zm0-3.763H10.349a.941.941,0,1,1,0-1.882h1.882a.941.941,0,0,1,0,1.882Zm5.645,3.763H15.994a.941.941,0,1,1,0-1.882h1.882a.941.941,0,0,1,0,1.882Zm0-3.763H15.994a.941.941,0,0,1,0-1.882h1.882a.941.941,0,0,1,0,1.882Zm5.645,0H21.639a.941.941,0,0,1,0-1.882h1.882a.941.941,0,1,1,0,1.882Zm2.823-5.645H1.882V4.7a.941.941,0,0,1,.941-.941H4.7V4.7a.941.941,0,0,0,1.882,0V3.763h3.763V4.7a.941.941,0,1,0,1.882,0V3.763h3.763V4.7a.941.941,0,0,0,1.882,0V3.763h3.763V4.7a.941.941,0,1,0,1.882,0V3.763H25.4a.941.941,0,0,1,.941.941Z" fill="#04458f"/>
        </g>
      </g>
      <g id="Group_1395" data-name="Group 1395" transform="translate(16.935 16.935)">
        <g id="Group_1394" data-name="Group 1394">
          <path id="Path_2279" data-name="Path 2279" d="M294.586,288a6.586,6.586,0,1,0,6.586,6.586A6.594,6.594,0,0,0,294.586,288Zm3.763,7.527h-3.763a.94.94,0,0,1-.941-.941v-3.763a.941.941,0,1,1,1.882,0v2.823h2.823a.941.941,0,1,1,0,1.882Z" transform="translate(-288 -288)" fill="#04458f"/>
        </g>
      </g>
    </g>
  </g>
</svg>
