<svg xmlns="http://www.w3.org/2000/svg" width="52" height="52" viewBox="0 0 52 52">
  <g id="_9.Class" data-name="9.Class" transform="translate(-32 -858.682)">
    <rect id="Rectangle" width="52" height="52" rx="8" transform="translate(32 858.682)" fill="#ebf2f9"/>
    <g id="_9.Class_category" data-name="9.Class category" transform="translate(43.73 870.667)">
      <g id="Group_1189" data-name="Group 1189" transform="translate(0.27 13.512)">
        <g id="Group_1188" data-name="Group 1188" transform="translate(0)">
          <path id="Path_2183" data-name="Path 2183" d="M.907,246.817H.27v1.663H.907v4.764H.27v1.663H.907v6.427h7.8V246.817Zm3.375,11.295H2.619v-1.645H4.282Zm0-6.427H2.619V250.04H4.282Zm2.713,6.427H5.331v-1.645H6.995Zm0-6.427H5.331V250.04H6.995Z" transform="translate(-0.27 -246.817)" fill="#04458f"/>
        </g>
      </g>
      <g id="Group_1191" data-name="Group 1191" transform="translate(7.952)">
        <g id="Group_1190" data-name="Group 1190">
          <path id="Path_2184" data-name="Path 2184" d="M152.473,9.429,150.81,8.2l-3.068-2.258V4.6l5.391-1.992L146.078,0V5.947L143.01,8.2l-1.663,1.224-.755.555.755,1,.25.33,1.414-1.035V28.03h7.8V10.275l1.414,1.035.25-.33.755-1Zm-6.088,15.378h-1.663V23.162h1.663Zm0-6.427h-1.663V16.735h1.663Zm0-6.427h-1.663V10.308h1.663ZM149.1,24.807h-1.663V23.162H149.1Zm0-6.427h-1.663V16.735H149.1Zm0-6.427h-1.663V10.308H149.1Z" transform="translate(-140.592)" fill="#04458f"/>
        </g>
      </g>
      <g id="Group_1193" data-name="Group 1193" transform="translate(19.833 13.512)">
        <g id="Group_1192" data-name="Group 1192">
          <path id="Path_2185" data-name="Path 2185" d="M365.421,253.244V248.48h.637v-1.663h-8.437v14.517h7.8v-6.427h.637v-1.663ZM361,258.112h-1.663v-1.645H361Zm0-6.427h-1.663V250.04H361Zm2.713,6.427h-1.663v-1.645h1.663Zm0-6.427h-1.663V250.04h1.663Z" transform="translate(-357.621 -246.817)" fill="#04458f"/>
        </g>
      </g>
    </g>
  </g>
</svg>
