<svg xmlns="http://www.w3.org/2000/svg" width="52" height="52" viewBox="0 0 52 52">
  <g id="_10.Classes" data-name="10.Classes" transform="translate(-32 -940)">
    <rect id="Rectangle" width="52" height="52" rx="8" transform="translate(32 940)" fill="#ebf2f9"/>
    <g id="_10.Classes-2" data-name="10.Classes" transform="translate(44 954)">
      <path id="Path_2186" data-name="Path 2186" d="M207.394,0H195.329A2.528,2.528,0,0,0,192.8,2.528V8.471l1.97.979.984-1.969a2.414,2.414,0,1,1,4.318,2.159l-1.754,3.509a3.665,3.665,0,0,1-.126,1.386h1.158l-3.055,8.4a.8.8,0,1,0,1.512.55l3.255-8.95h.564l3.288,8.952a.8.8,0,0,0,1.51-.555l-3.084-8.4h4.053a2.528,2.528,0,0,0,2.528-2.528V2.528A2.528,2.528,0,0,0,207.394,0ZM205.67,11.088h-3.61a.8.8,0,1,1,0-1.609h3.61a.8.8,0,1,1,0,1.609Zm0-3.016h-3.61a.8.8,0,1,1,0-1.609h3.61a.8.8,0,1,1,0,1.609Zm0-3.016h-8.617a.8.8,0,1,1,0-1.609h8.617a.8.8,0,1,1,0,1.609Zm0,0" transform="translate(-182.46)" fill="#04458f"/>
      <path id="Path_2187" data-name="Path 2187" d="M14.156,42.581a2.08,2.08,0,0,0,.022-1.277l2-3.993a.8.8,0,1,0-1.439-.72L13.032,40l-3.81-1.9a6.9,6.9,0,0,0-3.4-1.093H5.113a3.5,3.5,0,1,0-2.552-1.1,3.5,3.5,0,0,0,2.552,1.1,5.139,5.139,0,0,0-3.614,1.5A5.073,5.073,0,0,0,0,42.122v2.585a2.532,2.532,0,0,0,1.723,2.4v4.5a.8.8,0,0,0,.8.8H7.7a.8.8,0,0,0,.8-.8V42.561l2.576,1.288a2.2,2.2,0,0,0,3.074-1.259l0-.009Zm0,0" transform="translate(0 -28.391)" fill="#04458f"/>
    </g>
  </g>
</svg>
