<svg xmlns="http://www.w3.org/2000/svg" width="52.458" height="53.936" viewBox="0 0 52.458 53.936">
  <g id="Group_1475" data-name="Group 1475" transform="translate(-32 -213)">
    <g id="Group_4" data-name="Group 4" transform="translate(32 213)">
      <rect id="Rectangle" width="52.458" height="53.936" rx="8" fill="#ebf2f9"/>
    </g>
    <g id="_42.Class_period" data-name="42.Class period" transform="translate(43 227)">
      <path id="Path_2276" data-name="Path 2276" d="M208.8,0H195.572A2.771,2.771,0,0,0,192.8,2.771V9.287l2.16,1.074L196.04,8.2a2.646,2.646,0,1,1,4.734,2.367l-1.923,3.847a4.018,4.018,0,0,1-.138,1.519h1.27l-3.349,9.209a.882.882,0,1,0,1.658.6l3.568-9.812h.618l3.6,9.815a.882.882,0,0,0,1.656-.608l-3.381-9.207H208.8a2.771,2.771,0,0,0,2.771-2.771V2.771A2.771,2.771,0,0,0,208.8,0Zm-1.89,12.157h-3.957a.882.882,0,1,1,0-1.764h3.957a.882.882,0,1,1,0,1.764Zm0-3.307h-3.957a.882.882,0,1,1,0-1.764h3.957a.882.882,0,1,1,0,1.764Zm0-3.306h-9.447a.882.882,0,0,1,0-1.764h9.447a.882.882,0,1,1,0,1.764Zm0,0" transform="translate(-181.464)" fill="#04458f"/>
      <path id="Path_2277" data-name="Path 2277" d="M15.519,43.793a2.28,2.28,0,0,0,.024-1.4l2.189-4.378a.882.882,0,0,0-1.578-.789L14.287,40.96,10.11,38.882a7.564,7.564,0,0,0-3.725-1.2H5.606a3.842,3.842,0,1,0-2.8-1.209,3.832,3.832,0,0,0,2.8,1.209,5.634,5.634,0,0,0-3.962,1.641A5.561,5.561,0,0,0,0,43.289v2.834A2.776,2.776,0,0,0,1.89,48.751v4.93a.882.882,0,0,0,.882.882H8.44a.882.882,0,0,0,.882-.882v-9.91l2.824,1.412a2.416,2.416,0,0,0,3.37-1.38l0-.01Zm0,0" transform="translate(0 -28.236)" fill="#04458f"/>
    </g>
  </g>
</svg>
