<svg xmlns="http://www.w3.org/2000/svg" width="52" height="52" viewBox="0 0 52 52">
  <g id="Group_1488" data-name="Group 1488" transform="translate(-32 -536)">
    <rect id="Rectangle" width="52" height="52" rx="8" transform="translate(32 536)" fill="#ebf2f9"/>
    <g id="Group_1445" data-name="Group 1445" transform="translate(173.188 -11084)">
      <g id="Group_1218" data-name="Group 1218" transform="translate(-118.534 11631)">
        <g id="Group_1217" data-name="Group 1217" transform="translate(0 0)">
          <circle id="Ellipse_98" data-name="Ellipse 98" cx="2.418" cy="2.418" r="2.418" fill="#04458f"/>
        </g>
      </g>
      <g id="Group_1220" data-name="Group 1220" transform="translate(-114.502 11636.608)">
        <g id="Group_1219" data-name="Group 1219">
          <path id="Path_2199" data-name="Path 2199" d="M431.718,100.462a2.79,2.79,0,0,0-2.8-2.748h-1.519a2.618,2.618,0,0,1,.879,1.273l.016.006a1.615,1.615,0,0,1,1.095,1.568v8.48a1.167,1.167,0,1,0,2.334,0v-8.579Z" transform="translate(-427.394 -97.714)" fill="#04458f"/>
        </g>
      </g>
      <g id="Group_1222" data-name="Group 1222" transform="translate(-119.212 11645.682)">
        <g id="Group_1221" data-name="Group 1221">
          <path id="Path_2200" data-name="Path 2200" d="M350.418,256.273h-3.982a1.546,1.546,0,0,1-1.106-.465v13.3a1.4,1.4,0,1,0,2.795,0V257.918h.6v11.193a1.4,1.4,0,1,0,2.794,0v-13.3A1.546,1.546,0,0,1,350.418,256.273Z" transform="translate(-345.33 -255.808)" fill="#04458f"/>
        </g>
      </g>
      <g id="Group_1224" data-name="Group 1224" transform="translate(-122.053 11636.608)">
        <g id="Group_1223" data-name="Group 1223">
          <path id="Path_2201" data-name="Path 2201" d="M298.646,97.713a2.79,2.79,0,0,0-2.8,2.748v8.579a1.167,1.167,0,0,0,2.334,0V100.7a1.611,1.611,0,0,1,1.112-1.716,2.62,2.62,0,0,1,.878-1.269h-1.519Z" transform="translate(-295.841 -97.713)" fill="#04458f"/>
        </g>
      </g>
      <g id="Group_1226" data-name="Group 1226" transform="translate(-118.781 11636.909)">
        <g id="Group_1225" data-name="Group 1225">
          <path id="Path_2202" data-name="Path 2202" d="M357.494,104.714h-.242a1.749,1.749,0,0,0-3.5,0h-.242a.675.675,0,0,0-.675.675v5.277a.675.675,0,0,0,.675.675h3.982a.675.675,0,0,0,.675-.675v-5.277A.675.675,0,0,0,357.494,104.714Zm-2.2-.862h.414a.888.888,0,0,1,.68.862h-1.774A.888.888,0,0,1,355.3,103.852Zm1.145,5.841h-1.877a.574.574,0,0,1,0-1.149h1.877a.574.574,0,1,1,0,1.149Z" transform="translate(-352.837 -102.965)" fill="#04458f"/>
        </g>
      </g>
      <path id="Path_2329" data-name="Path 2329" d="M19.482,9.11a25.6,25.6,0,0,0-2.809,2.335c-.886.842-1.726,1.728-2.534,2.642-.3.341-.591.685-.881,1.032a.072.072,0,0,1-.009-.016,13.929,13.929,0,0,0-1.367-1.548c-.479-.472-.977-.909-1.488-1.325-.257-.206-.517-.408-.781-.607s-.517-.378-.854-.591l-2.1,4.27c.192.051.47.16.707.252s.5.2.74.307c.49.217.968.453,1.424.707a7.475,7.475,0,0,1,2.221,1.745l1.614,2.116.929-2.013c.467-1.008,1.026-2.063,1.6-3.068s1.2-2,1.866-2.961A24.17,24.17,0,0,1,19.95,9.651,10.815,10.815,0,0,1,22.7,7.457,11.361,11.361,0,0,0,19.482,9.11Z" transform="translate(-122.777 11638.9)" fill="#04458f" stroke="#ebf2f9" stroke-width="1"/>
    </g>
  </g>
</svg>
