<svg xmlns="http://www.w3.org/2000/svg" width="52" height="52" viewBox="0 0 52 52">
  <g id="_7.Depratments" data-name="7.Depratments" transform="translate(-32 -697)">
    <g id="Group_4" data-name="Group 4" transform="translate(32 697)">
      <rect id="Rectangle" width="52" height="52" rx="8" fill="#ebf2f9"/>
    </g>
    <path id="_7.Department" data-name="7.Department" d="M23.681,43.679a.668.668,0,0,1-.668.668H3.523a2.284,2.284,0,0,1-2.282-2.282v-2.5a2.284,2.284,0,0,1,2.282-2.282h19.49a.668.668,0,1,1,0,1.336h-.4v4.4h.4A.668.668,0,0,1,23.681,43.679Zm2.86-7.934a.668.668,0,0,1-.668.668H9.142A2.124,2.124,0,0,1,7.02,34.291V32.509a2.124,2.124,0,0,1,2.122-2.122H25.873a.668.668,0,1,1,0,1.336h-.337v3.355h.337A.668.668,0,0,1,26.541,35.745Zm-17.4-.668H24.2V31.722H9.142a.787.787,0,0,0-.786.786v1.783A.787.787,0,0,0,9.142,35.077Zm18.19-12.771H.668a.668.668,0,1,0,0,1.336h.573v5.711a1.175,1.175,0,1,0,1.336,0V23.642H5.721v5.265a.668.668,0,0,0,.668.668H21.612a.668.668,0,0,0,.668-.668V23.642h5.053a.668.668,0,1,0,0-1.336Z" transform="translate(44 689.694)" fill="#04458f"/>
  </g>
</svg>
