<svg xmlns="http://www.w3.org/2000/svg" width="27.957" height="27.388" viewBox="0 0 27.957 27.388">
  <g id="_1.Division" data-name="1.Division" transform="translate(0 -0.468)">
    <g id="Group_1185" data-name="Group 1185" transform="translate(0 0.468)">
      <path id="Path_2159" data-name="Path 2159" d="M20.412,28.312q-.654,1.054-1.427,2.2c4.336.648,6.556,2.037,6.556,2.728,0,.92-3.933,3.077-11.562,3.077S2.417,34.157,2.417,33.237c0-.691,2.219-2.079,6.556-2.728q-.774-1.143-1.428-2.2C3.267,29.119,0,30.778,0,33.237c0,3.607,7.033,5.5,13.978,5.5s13.979-1.888,13.979-5.5C27.958,30.778,24.692,29.119,20.412,28.312Z" transform="translate(0 -11.345)" fill="#04458f"/>
      <g id="Group_1184" data-name="Group 1184" transform="translate(5.804)">
        <path id="Path_2160" data-name="Path 2160" d="M17.73.468A8.206,8.206,0,0,0,9.524,8.673c0,3.251,4.221,9.471,6.609,12.729a1.979,1.979,0,0,0,3.194,0c2.388-3.258,6.609-9.478,6.609-12.729A8.206,8.206,0,0,0,17.73.468Zm0,13.3a4.856,4.856,0,1,1,4.855-4.855A4.862,4.862,0,0,1,17.73,13.768Z" transform="translate(-9.524 -0.468)" fill="#04458f"/>
        <path id="Path_2161" data-name="Path 2161" d="M21.1,9.479a2.953,2.953,0,1,0,2.954,2.954A2.957,2.957,0,0,0,21.1,9.479Z" transform="translate(-12.891 -3.988)" fill="#04458f"/>
      </g>
    </g>
  </g>
</svg>
