<svg xmlns="http://www.w3.org/2000/svg" width="52" height="52" viewBox="0 0 52 52">
  <g id="Group_1485" data-name="Group 1485" transform="translate(-32 -294)">
    <g id="Group_4" data-name="Group 4" transform="translate(32 294)">
      <rect id="Rectangle" width="52" height="52" rx="8" fill="#ebf2f9"/>
    </g>
    <g id="_53.checking-attendance" data-name="53.checking-attendance" transform="translate(44 307.294)">
      <g id="Group_1436" data-name="Group 1436" transform="translate(0 0.706)">
        <path id="Path_2325" data-name="Path 2325" d="M3.059,8.287a1.433,1.433,0,0,0,.358.78c.348,2.317,2.284,4.467,4.056,4.467,2.064,0,3.944-2.327,4.305-4.462a1.415,1.415,0,0,0,.365-.785c.117-.434.269-1.188,0-1.542a.643.643,0,0,0-.043-.05c.25-.911.565-2.794-.563-4.076A4.167,4.167,0,0,0,9.456,1.336l-.646-.222A10.319,10.319,0,0,0,7.05.708.453.453,0,0,0,6.905.72a.727.727,0,0,1-.262.031,1.791,1.791,0,0,0-.7.121,5.052,5.052,0,0,0-2.773,2.78A6.236,6.236,0,0,0,3.19,6.623a.573.573,0,0,0-.133.126C2.789,7.1,2.941,7.853,3.059,8.287Z" transform="translate(2.098 -0.706)" fill="#04458f"/>
        <path id="Path_2326" data-name="Path 2326" d="M13.4,18c-.38-.213-.794-.418-1.234-.613-.213-.095-.43-.184-.646-.269-.169-.064-.368-.146-.508-.182l-2.042-.551,3.82-7.778,1.637,1.033c.346.217.6.4.88.606l.059.043q.416.307.816.632a20.314,20.314,0,0,1,1.57,1.4l.107.105c.16-.177.317-.336.473-.506a6.708,6.708,0,0,0-.739-1.584,3.273,3.273,0,0,0-1.417-.955s-.084-.026-.213-.069a16.037,16.037,0,0,0-1.728-.682c-.181-.065-.339-.129-.482-.191-.6-.3-1.1-.634-1.207-.95,0,0,.348,3.365-2.594,3.445l-.41-.019C6.876,10.679,6.7,7.484,6.7,7.484c-.279.876-3.632,1.9-3.632,1.9a3.281,3.281,0,0,0-1.419.957C.174,12.523,0,17.388,0,17.388c.019,1.112.5,1.227.5,1.227,3.39,1.513,8.707,1.78,8.707,1.78.287.007.554-.009.821-.024l.007.028a36.984,36.984,0,0,0,5.318-.728l-.332-.436A5.673,5.673,0,0,0,13.4,18Z" transform="translate(0 4.184)" fill="#04458f"/>
        <path id="Path_2327" data-name="Path 2327" d="M7.222,7.651c.036-.046.076-.093.114-.145a.335.335,0,0,1-.01-.046C7.293,7.527,7.255,7.584,7.222,7.651Z" transform="translate(5.211 4.166)" fill="#04458f"/>
        <path id="Path_2328" data-name="Path 2328" d="M3.906,7.5,3.9,7.46,3.891,7.5c0-.007.009-.014.01-.021A.052.052,0,0,1,3.906,7.5Z" transform="translate(2.807 4.166)" fill="#04458f"/>
        <path id="Path_2329" data-name="Path 2329" d="M19.092,9.06a24.825,24.825,0,0,0-2.723,2.264c-.859.816-1.673,1.675-2.457,2.562-.291.331-.573.664-.854,1a.07.07,0,0,1-.009-.015,13.505,13.505,0,0,0-1.326-1.5c-.465-.458-.947-.881-1.443-1.284-.25-.2-.5-.4-.757-.589s-.5-.367-.828-.573l-2.035,4.14c.186.05.456.155.685.244s.48.193.718.3c.475.21.938.439,1.381.685A7.248,7.248,0,0,1,11.6,17.982l1.565,2.052.9-1.952c.453-.978,1-2,1.551-2.975s1.16-1.944,1.809-2.871a23.435,23.435,0,0,1,2.123-2.651,10.486,10.486,0,0,1,2.661-2.128A11.015,11.015,0,0,0,19.092,9.06Z" transform="translate(4.806 4.164)" fill="#04458f"/>
      </g>
    </g>
  </g>
</svg>
