<svg xmlns="http://www.w3.org/2000/svg" width="52.458" height="53.936" viewBox="0 0 52.458 53.936">
  <g id="Group_1489" data-name="Group 1489" transform="translate(-32 -211)">
    <g id="Group_1373" data-name="Group 1373">
      <g id="Group_4" data-name="Group 4" transform="translate(32 211)">
        <rect id="Rectangle" width="52.458" height="53.936" rx="8" fill="#ebf2f9"/>
      </g>
    </g>
    <g id="_566.exit" data-name="566.exit" transform="translate(45.169 226.002)">
      <g id="Group_1448" data-name="Group 1448" transform="translate(0.831 -0.001)">
        <g id="Group_1447" data-name="Group 1447" transform="translate(0 0)">
          <path id="Path_2332" data-name="Path 2332" d="M24.688,14.115h-.833V13.06a.481.481,0,0,0-.481-.481H23.09a.872.872,0,0,0-.652-.915l-2.748-.706.885-2.318a1.3,1.3,0,0,0-.752-1.68L17.8,6.175a2.235,2.235,0,0,0-1.215-.114L12.026,6.9a.873.873,0,0,0-.515.3L9.712,9.37V2.831A.575.575,0,0,0,9.3,2.279L5.429,1.15H15.462V5.4l1.15-.15V.575A.575.575,0,0,0,16.037,0C15.955,0,1.4,0,1.36,0A.576.576,0,0,0,.832.575c0,.141,0,21.021,0,21.082a.576.576,0,0,0,.409.48l7.731,2.256a.575.575,0,0,0,.736-.552V11.934a.866.866,0,0,0,.354-.255l2.587-3.122,2.884-.527-1.944,5.091s.069-.175-1.226,4.26l-1.508,2.866v2.715h0A1.017,1.017,0,0,0,12,22.447l2.215-4.21a1.018,1.018,0,0,0,.076-.188l1.225-4.194.276.105,2.134,3.352-1.534,4.321a1.017,1.017,0,1,0,1.916.68l1.7-4.789a1.017,1.017,0,0,0-.1-.886L18.415,14.3l.648-1.7,1.374.353-.013,1.163h-.833a.478.478,0,0,0-.288.1l1.274,2a1.8,1.8,0,0,1,.179,1.579l-.212.6h4.143a.481.481,0,0,0,.481-.481V14.6A.481.481,0,0,0,24.688,14.115Zm-16.614,1a.575.575,0,0,1-1.15,0V11.8a.575.575,0,1,1,1.15,0Zm14.82-1H21.387v-.574h1.507Z" transform="translate(-0.831 0.001)" fill="#04458f"/>
        </g>
      </g>
      <g id="Group_1450" data-name="Group 1450" transform="translate(13.048 15.535)">
        <g id="Group_1449" data-name="Group 1449">
          <path id="Path_2333" data-name="Path 2333" d="M259.807,325.767l-.391,1.337v4.138h-1.809l-.6,1.15h2.5a1.8,1.8,0,0,1,.1-.793l.969-2.729v-1.91Z" transform="translate(-257.003 -325.767)" fill="#04458f"/>
        </g>
      </g>
      <g id="Group_1452" data-name="Group 1452" transform="translate(18.059 2.287)">
        <g id="Group_1451" data-name="Group 1451" transform="translate(0)">
          <path id="Path_2334" data-name="Path 2334" d="M364.7,48.093a1.927,1.927,0,1,0,1.113,2.487A1.927,1.927,0,0,0,364.7,48.093Z" transform="translate(-362.089 -47.965)" fill="#04458f"/>
        </g>
      </g>
    </g>
  </g>
</svg>
