<svg xmlns="http://www.w3.org/2000/svg" width="52" height="52" viewBox="0 0 52 52">
  <g id="Group_1491" data-name="Group 1491" transform="translate(-32 -374)">
    <g id="Group_4" data-name="Group 4" transform="translate(32 374)">
      <rect id="Rectangle" width="52" height="52" rx="8" fill="#ebf2f9"/>
    </g>
    <g id="_57.curriculum-vitae" data-name="57.curriculum-vitae" transform="translate(46 387.994)">
      <g id="Group_1454" data-name="Group 1454" transform="translate(4.218 8.487)">
        <g id="Group_1453" data-name="Group 1453">
          <path id="Path_2335" data-name="Path 2335" d="M92.857,181A2.855,2.855,0,0,0,90,183.813h5.717A2.855,2.855,0,0,0,92.857,181Z" transform="translate(-89.998 -181.001)" fill="#04458f"/>
        </g>
      </g>
      <g id="Group_1456" data-name="Group 1456" transform="translate(15.559 0.474)">
        <g id="Group_1455" data-name="Group 1455">
          <path id="Path_2336" data-name="Path 2336" d="M331.994,10v3.8h3.8Z" transform="translate(-331.994 -10.004)" fill="#04458f"/>
        </g>
      </g>
      <g id="Group_1458" data-name="Group 1458" transform="translate(5.624 4.27)">
        <g id="Group_1457" data-name="Group 1457">
          <path id="Path_2337" data-name="Path 2337" d="M121.451,91a1.407,1.407,0,1,0,1.453,1.406A1.449,1.449,0,0,0,121.451,91Z" transform="translate(-119.998 -91.003)" fill="#04458f"/>
        </g>
      </g>
      <g id="Group_1460" data-name="Group 1460" transform="translate(0 0.005)">
        <g id="Group_1459" data-name="Group 1459" transform="translate(0 0)">
          <path id="Path_2338" data-name="Path 2338" d="M13.45,9.893h4.071l2.256-2.258V5.676H14.856a.7.7,0,0,1-.7-.7V0H2.109A2.146,2.146,0,0,0,0,2.161V21.844A2.147,2.147,0,0,0,2.109,24H17.668a2.147,2.147,0,0,0,2.109-2.156V15.587l-3.941,3.941-3.71,2.642A2.107,2.107,0,0,1,9.4,21.932a2.072,2.072,0,0,1-.469-.792H7.779a.7.7,0,1,1,0-1.406H8.942a2.093,2.093,0,0,1,.26-.53l2.558-3.485c.036-.052.124-.173,4.359-4.421H13.45a.7.7,0,1,1,0-1.406ZM9.232,18.329H3.515a.7.7,0,0,1,0-1.406H9.232a.7.7,0,1,1,0,1.406Zm0-2.812H3.515a.7.7,0,0,1,0-1.406H9.232a.7.7,0,1,1,0,1.406ZM11.341,12a.7.7,0,0,1-.7.7H3.515a.7.7,0,0,1-.7-.7v-.7a4.2,4.2,0,0,1,2.2-3.678,2.8,2.8,0,0,1-.79-1.945,2.859,2.859,0,0,1,5.718,0,2.8,2.8,0,0,1-.79,1.945,4.2,4.2,0,0,1,2.2,3.678ZM13.45,7.082h2.812a.7.7,0,1,1,0,1.406H13.45a.7.7,0,1,1,0-1.406Z" transform="translate(0 -0.005)" fill="#04458f"/>
        </g>
      </g>
      <g id="Group_1462" data-name="Group 1462" transform="translate(19.402 7.394)">
        <g id="Group_1461" data-name="Group 1461">
          <path id="Path_2339" data-name="Path 2339" d="M418.177,158.077a1.407,1.407,0,0,0-1.988,0l-2.193,2.2,1.986,1.986,2.194-2.194A1.405,1.405,0,0,0,418.177,158.077Z" transform="translate(-413.996 -157.666)" fill="#04458f"/>
        </g>
      </g>
      <g id="Group_1464" data-name="Group 1464" transform="translate(13.584 10.996)">
        <g id="Group_1463" data-name="Group 1463">
          <path id="Path_2340" data-name="Path 2340" d="M294.676,234.536c-1.766,1.77-3.789,3.8-4.825,4.849a2.69,2.69,0,0,1,1.965,1.981l4.845-4.844Z" transform="translate(-289.851 -234.536)" fill="#04458f"/>
        </g>
      </g>
      <g id="Group_1466" data-name="Group 1466" transform="translate(10.199 17.164)">
        <g id="Group_1465" data-name="Group 1465">
          <path id="Path_2341" data-name="Path 2341" d="M220.368,366.139h-.495l-2.108,2.872a.7.7,0,0,0,.975.989l2.914-2.075v-.5A1.287,1.287,0,0,0,220.368,366.139Z" transform="translate(-217.629 -366.139)" fill="#04458f"/>
        </g>
      </g>
    </g>
  </g>
</svg>
