<svg xmlns="http://www.w3.org/2000/svg" width="52.458" height="53.936" viewBox="0 0 52.458 53.936">
  <g id="Group_1478" data-name="Group 1478" transform="translate(-32 -211)">
    <g id="Group_1373" data-name="Group 1373">
      <g id="Group_4" data-name="Group 4" transform="translate(32 211)">
        <rect id="Rectangle" width="52.458" height="53.936" rx="8" fill="#ebf2f9"/>
      </g>
    </g>
    <g id="_45.cash-payment" data-name="45.cash-payment" transform="translate(-36.024 191)">
      <path id="Path_2286" data-name="Path 2286" d="M130.694,103.73a.546.546,0,0,1-.358.684l-1.042.326,2.1,6.7v-9.071l-1.022.32Z" transform="translate(-44.043 -65.563)" fill="#04458f"/>
      <path id="Path_2287" data-name="Path 2287" d="M185.57,61.49h-6.293a.546.546,0,0,1-.546-.546V59.852h-1.092a.546.546,0,0,1-.546-.546V35.277a.546.546,0,0,1,.546-.546h1.092V33.638a.546.546,0,0,1,.546-.546h6.553a.546.546,0,0,1,.546.546v1.092h1.092a.546.546,0,0,1,.546.546V53.458l.279.386h.813V32H176V62.583h10.751a6.056,6.056,0,0,1-1.181-1.092Z" transform="translate(-87.561)" fill="#04458f"/>
      <path id="Path_2288" data-name="Path 2288" d="M87.347,87.511V83.853L84.045,73.3a.546.546,0,0,1,.358-.684l1.042-.326-.326-1.043a.546.546,0,0,1,.358-.684l1.87-.585V68.837L82.024,70.5Z" transform="translate(0 -34.322)" fill="#04458f"/>
      <path id="Path_2289" data-name="Path 2289" d="M215.089,79.481l1.649,2.282V65.638h-1.092a.546.546,0,0,1-.546-.546V64h-5.461v1.092a.546.546,0,0,1-.546.546H208V88.575h1.092a.546.546,0,0,1,.546.546v1.092h5.027a5.967,5.967,0,0,1-.656-2.577l-3.44-5.091a2.739,2.739,0,0,1-.152-2.807,3.278,3.278,0,1,1,4.462-.528A2.758,2.758,0,0,1,215.089,79.481Z" transform="translate(-117.376 -29.816)" fill="#04458f"/>
      <path id="Path_2290" data-name="Path 2290" d="M263.6,200v10.922a.546.546,0,0,1-.546.546h-1.638a.546.546,0,0,1-.443-.226l-3.188-4.412-.01-.014a1.638,1.638,0,1,0-2.715,1.835l3.543,5.243a.546.546,0,0,1,.084.409,4.921,4.921,0,0,0,4.914,4.812h3.277V206.553a1.645,1.645,0,0,0-.193-.771Z" transform="translate(-160.963 -156.532)" fill="#04458f"/>
      <path id="Path_2291" data-name="Path 2291" d="M240,226.171a2.183,2.183,0,0,0,.93,1.788c.061-.049.123-.1.188-.14a2.732,2.732,0,0,1,2.7-.2A2.184,2.184,0,1,0,240,226.171Z" transform="translate(-147.192 -178.88)" fill="#04458f"/>
    </g>
  </g>
</svg>
