<svg xmlns="http://www.w3.org/2000/svg" width="52" height="52" viewBox="0 0 52 52">
  <g id="_8.Groups" data-name="8.Groups" transform="translate(-32 -778)">
    <rect id="Rectangle" width="52" height="52" rx="8" transform="translate(32 778)" fill="#ebf2f9"/>
    <g id="_8.Groups-2" data-name="8.Groups" transform="translate(58.63 787)">
      <path id="Path_2174" data-name="Path 2174" d="M137.211,3.525a.492.492,0,0,0,.492-.492V.492a.492.492,0,1,0-.984,0V3.033A.492.492,0,0,0,137.211,3.525Zm0,0" transform="translate(-138.107)" fill="#04458f"/>
      <path id="Path_2175" data-name="Path 2175" d="M253.608,69.342a.491.491,0,0,0,.328-.126l1.965-1.763a.492.492,0,0,0-.657-.732l-1.965,1.763a.492.492,0,0,0,.329.858Zm0,0" transform="translate(-247.949 -62.845)" fill="#04458f"/>
      <path id="Path_2176" data-name="Path 2176" d="M-7.593,64.13a.492.492,0,0,0,.693-.016.492.492,0,0,0-.01-.693l-1.883-1.815a.492.492,0,0,0-.479-.122.493.493,0,0,0-.343.356.492.492,0,0,0,.139.474Zm0,0" transform="translate(0 -58.004)" fill="#04458f"/>
      <path id="Path_2177" data-name="Path 2177" d="M131.287,398.027h-2.116l.025,6.818h2.066Zm0,0" transform="translate(-130.985 -375.612)" fill="#04458f"/>
      <path id="Path_2178" data-name="Path 2178" d="M185.135,398.027h-1.341l-.025,6.818h1.35Zm0,0" transform="translate(-182.508 -375.612)" fill="#04458f"/>
      <path id="Path_2179" data-name="Path 2179" d="M87.883,398.027l.016,6.818h1.349l-.025-6.818Zm0,0" transform="translate(-92.021 -375.612)" fill="#04458f"/>
      <path id="Path_2180" data-name="Path 2180" d="M102.773,536.57H97.039l2.867,3.783Zm0,0" transform="translate(-100.662 -506.353)" fill="#04458f"/>
      <path id="Path_2181" data-name="Path 2181" d="M45.079,114.443h5.34c-.042-1.406.638-2.106,1.691-3.152a5.534,5.534,0,0,0,1.629-3.874,5.47,5.47,0,0,0-1.667-3.915,6.06,6.06,0,0,0-4.385-1.735,5.935,5.935,0,0,0-5.875,5.556,5.436,5.436,0,0,0,1.6,3.942c1.031,1.026,1.7,1.772,1.665,3.178Zm.37-7.654a1.189,1.189,0,0,1,.988.629.972.972,0,0,0,.17.208h.023a.964.964,0,0,0,.17-.208,1.091,1.091,0,0,1,1.977,0,.957.957,0,0,0,.17.208h.023a.97.97,0,0,0,.17-.208,1.189,1.189,0,0,1,.988-.629.492.492,0,1,1,0,.984h-.012a.97.97,0,0,0-.17.208,1.091,1.091,0,0,1-1.977,0,.977.977,0,0,0-.17-.208h-.023a.964.964,0,0,0-.17.208,1.091,1.091,0,0,1-1.977,0,.946.946,0,0,0-.17-.208H45.45a.492.492,0,0,1,0-.984Zm0,0" transform="translate(-48.545 -96.034)" fill="#04458f"/>
      <path id="Path_2182" data-name="Path 2182" d="M94.534,344.359h-6.78l0,2.038h6.771Zm0,0" transform="translate(-91.9 -324.966)" fill="#04458f"/>
    </g>
  </g>
</svg>
