<svg xmlns="http://www.w3.org/2000/svg" width="32" height="32" viewBox="0 0 32 32">
  <g id="Group_1277" data-name="Group 1277" transform="translate(-648 -3424)">
    <g id="Group_1274" data-name="Group 1274" transform="translate(-290 -65)">
      <rect id="Rectangle" width="32" height="32" rx="6" transform="translate(938 3489)" fill="#ebf2f9"/>
    </g>
    <g id="_20.lavatory" data-name="20.lavatory" transform="translate(655.001 3423.441)">
      <path id="Path_2214" data-name="Path 2214" d="M7.566,51.83,5.653,50.736a2.633,2.633,0,1,0-3.167,0L.573,51.832A1.143,1.143,0,0,0,0,52.847l.014.619a.463.463,0,0,0,.925-.021l-.014-.618a.218.218,0,0,1,.109-.193L3.37,51.3a.215.215,0,0,1,.109-.029H4.66a.215.215,0,0,1,.117.034l.018.011,2.311,1.321a.219.219,0,0,1,.109.212c0,.012,0,.023,0,.035L7.05,59.9a.218.218,0,0,1-.146.2l-.011,0L5.57,60.6a.463.463,0,0,0-.3.433l-.006,3.253a.217.217,0,0,1-.217.217l-1.952,0a.22.22,0,0,1-.219-.219c0-.939,0-1.972,0-3.253a.462.462,0,0,0-.3-.433L1.23,60.1a.218.218,0,0,1-.141-.2s0,0,0-.007l-.064-2.745a.463.463,0,1,0-.925.021l.064,2.742a1.149,1.149,0,0,0,.743,1.057l1.038.387c0,1.134,0,2.072,0,2.93a1.146,1.146,0,0,0,1.145,1.144l1.952,0a1.143,1.143,0,0,0,1.142-1.141l.006-2.931,1.017-.379a1.145,1.145,0,0,0,.764-1.054l.164-7a1.146,1.146,0,0,0-.572-1.087Zm-3.5-4.9a1.709,1.709,0,1,1-1.709,1.709A1.71,1.71,0,0,1,4.07,46.925Zm0,0" transform="translate(0 -39.441)" fill="#04458f"/>
      <path id="Path_2215" data-name="Path 2215" d="M311.682,59.347l-.13-.539a.462.462,0,1,0-.9.217l.13.54a.217.217,0,0,1-.149.259l-.021.007-2.245.777a.463.463,0,0,0-.311.436l-.006,3.241a.217.217,0,0,1-.217.217l-1.952,0a.216.216,0,0,1-.161-.07.221.221,0,0,1-.058-.169c0-.013,0-.026,0-.04l-.006-3.182a.462.462,0,0,0-.311-.436l-2.274-.788a.218.218,0,0,1-.14-.255l1.709-7.072a.217.217,0,0,1,.081-.123l1.412-1.055a.216.216,0,0,1,.131-.044h1.182a.216.216,0,0,1,.137.049l.014.011,1.392,1.038a.218.218,0,0,1,.085.139c0,.011,0,.022.007.032l.7,2.889a.463.463,0,1,0,.9-.217l-.7-2.875a1.139,1.139,0,0,0-.441-.709l-1.147-.855a2.633,2.633,0,1,0-3.08,0l-1.147.857a1.146,1.146,0,0,0-.427.647l-1.709,7.071a1.136,1.136,0,0,0,.737,1.348l1.963.68.005,2.836a1.145,1.145,0,0,0,1.143,1.22l1.952,0a1.143,1.143,0,0,0,1.142-1.141l.006-2.912,1.926-.667a1.141,1.141,0,0,0,.775-1.36Zm-4.824-12.418a1.709,1.709,0,1,1-1.708,1.709A1.71,1.71,0,0,1,306.858,46.929Zm0,0" transform="translate(-292.576 -39.445)" fill="#04458f"/>
      <path id="Path_2217" data-name="Path 2217" d="M1.713,238.1a.462.462,0,0,0,.463-.463h0a.463.463,0,1,0-.463.463Zm0,0" transform="translate(-1.193 -221.771)" fill="#04458f"/>
      <path id="Path_2218" data-name="Path 2218" d="M479.691,276.311a.463.463,0,1,0,.572.318h0A.463.463,0,0,0,479.691,276.311Zm0,0" transform="translate(-461.727 -259.083)" fill="#04458f"/>
    </g>
  </g>
</svg>
