<svg xmlns="http://www.w3.org/2000/svg" width="34" height="34" viewBox="0 0 34 34">
  <path id="_21.new-year" data-name="21.new-year" d="M31.344,22.047V7.969a2.659,2.659,0,0,0-2.656-2.656H26.961V6.641a1.328,1.328,0,0,1-2.656,0V5.313H18.262V6.641a1.328,1.328,0,0,1-2.656,0V5.313H9.629V6.641a1.328,1.328,0,0,1-2.656,0V5.313H5.313A2.659,2.659,0,0,0,2.656,7.969V9.961h24.7a1.328,1.328,0,0,1,0,2.656H2.656v16.07a2.659,2.659,0,0,0,2.656,2.656H28.688a2.659,2.659,0,0,0,2.656-2.656,1.328,1.328,0,0,1,2.656,0A5.318,5.318,0,0,1,28.688,34H5.313A5.318,5.318,0,0,1,0,28.688V7.969A5.318,5.318,0,0,1,5.313,2.656h1.66V1.328a1.328,1.328,0,0,1,2.656,0V2.656h5.977V1.328a1.328,1.328,0,0,1,2.656,0V2.656H24.3V1.328a1.328,1.328,0,0,1,2.656,0V2.656h1.727A5.318,5.318,0,0,1,34,7.969V22.047a1.328,1.328,0,0,1-2.656,0Zm-13.68,6.641a1.328,1.328,0,0,0,1.328-1.328V16.469a1.328,1.328,0,0,0-2.142-1.05l-2.656,2.059a1.328,1.328,0,0,0,1.627,2.1l.515-.4v8.181a1.328,1.328,0,0,0,1.328,1.328Zm0,0" fill="#04458f"/>
</svg>
