<svg xmlns="http://www.w3.org/2000/svg" width="34" height="23.294" viewBox="0 0 34 23.294">
  <g id="_19.message" data-name="19.message" transform="translate(0 -80.609)">
    <g id="Group_1265" data-name="Group 1265" transform="translate(0 80.609)">
      <path id="Path_2213" data-name="Path 2213" d="M31.012,80.609H2.988A2.992,2.992,0,0,0,0,83.6v17.318A2.992,2.992,0,0,0,2.988,103.9H31.012A2.992,2.992,0,0,0,34,100.915V83.6A2.992,2.992,0,0,0,31.012,80.609Zm-.39,1.992-.4.332L18.186,92.957a1.853,1.853,0,0,1-2.371,0L3.777,82.933l-.4-.332ZM1.992,84.039,11.8,92.206,1.992,98.734Zm29.02,17.872H2.988a1,1,0,0,1-.976-.8L13.4,93.536l1.142.951a3.845,3.845,0,0,0,4.921,0l1.142-.951,11.385,7.577A1,1,0,0,1,31.012,101.911Zm1-3.177L22.2,92.206l9.808-8.167Z" transform="translate(0 -80.609)" fill="#04458f"/>
    </g>
  </g>
</svg>
