<svg xmlns="http://www.w3.org/2000/svg" width="27.5" height="27.558" viewBox="0 0 27.5 27.558">
  <g id="_24.phonephone-call" data-name="24.phonephone-call" transform="translate(-0.539)">
    <g id="Group_1270" data-name="Group 1270" transform="translate(0.539 0)">
      <path id="Path_2223" data-name="Path 2223" d="M27.318,20.225l-3.846-3.846a2.558,2.558,0,0,0-4.258.961,2.617,2.617,0,0,1-3.022,1.648c-2.747-.687-6.455-4.258-7.142-7.142A2.489,2.489,0,0,1,10.7,8.825a2.558,2.558,0,0,0,.961-4.258L7.814.721a2.743,2.743,0,0,0-3.708,0L1.5,3.331c-2.61,2.747.275,10.027,6.73,16.482s13.735,9.477,16.482,6.73l2.61-2.61A2.743,2.743,0,0,0,27.318,20.225Z" transform="translate(-0.539 0)" fill="#04458f"/>
    </g>
  </g>
</svg>
