<svg xmlns="http://www.w3.org/2000/svg" width="33.305" height="33.307" viewBox="0 0 33.305 33.307">
  <g id="_25.global" data-name="25.global" transform="translate(-0.016 0.002)">
    <g id="Group_1271" data-name="Group 1271" transform="translate(0.016 -0.002)">
      <path id="Path_2224" data-name="Path 2224" d="M30.243,7.039a.278.278,0,0,0,0-.032c-.042-.059-.093-.111-.136-.169q-.466-.635-.988-1.223c-.1-.107-.19-.213-.288-.318q-.537-.575-1.126-1.1c-.073-.064-.14-.131-.213-.194a16.677,16.677,0,0,0-3.158-2.132c-.045-.024-.093-.044-.139-.068a16.548,16.548,0,0,0-1.547-.689c-.119-.043-.227-.083-.34-.119Q21.6.746,20.878.555c-.143-.038-.286-.077-.431-.111C19.971.334,19.5.249,19.008.18c-.148-.021-.293-.05-.441-.068a15.643,15.643,0,0,0-3.774,0c-.149.018-.294.046-.441.068-.487.069-.967.154-1.439.264-.145.033-.288.073-.431.111q-.729.19-1.428.444c-.119.04-.227.081-.34.119a16.538,16.538,0,0,0-1.547.689c-.046.024-.094.044-.139.068A16.681,16.681,0,0,0,5.859,4.007c-.073.063-.14.13-.213.194A15.476,15.476,0,0,0,4.52,5.3c-.1.1-.193.211-.288.318Q3.71,6.2,3.245,6.838c-.043.058-.094.109-.136.169a.27.27,0,0,0-.014.032,16.55,16.55,0,0,0,0,19.226.259.259,0,0,0,.014.032c.042.059.093.111.136.169q.465.635.988,1.223c.1.107.19.213.288.318q.538.575,1.126,1.1c.073.064.14.131.213.194a16.677,16.677,0,0,0,3.158,2.132c.045.024.093.044.139.068a16.548,16.548,0,0,0,1.547.689c.119.043.227.083.34.119q.7.253,1.428.444c.143.038.286.077.431.111.476.111.952.2,1.439.264.148.021.293.05.441.068a15.643,15.643,0,0,0,3.774,0c.149-.018.294-.046.441-.068.487-.069.967-.154,1.439-.264.145-.033.288-.073.431-.111q.731-.19,1.428-.444c.119-.04.227-.081.34-.119a16.539,16.539,0,0,0,1.547-.689c.046-.024.094-.044.139-.068A16.68,16.68,0,0,0,27.479,29.3c.073-.063.14-.13.213-.194a15.15,15.15,0,0,0,1.126-1.1c.1-.1.193-.211.288-.318q.522-.588.988-1.223c.043-.058.094-.109.136-.169a.27.27,0,0,0,.014-.032A16.55,16.55,0,0,0,30.243,7.039ZM28.886,9.29a14.158,14.158,0,0,1,2.007,6.172H23.766a22.2,22.2,0,0,0-.666-4.2A21.382,21.382,0,0,0,28.886,9.29ZM19.7,2.7c.067.015.131.037.2.052a12.805,12.805,0,0,1,1.261.357c.063.021.125.046.187.069q.614.214,1.208.476c.069.032.137.068.206.1q.568.27,1.109.584l.238.144q.514.314,1,.672c.083.061.167.119.249.186a10.857,10.857,0,0,1,.911.765c.076.069.155.137.23.208.3.289.595.595.876.911.036.042.074.08.109.119a19.959,19.959,0,0,1-5.075,1.63A30.256,30.256,0,0,0,19.2,2.62C19.37,2.649,19.539,2.666,19.7,2.7Zm-7.744,12.76a19.854,19.854,0,0,1,.654-3.808,34.1,34.1,0,0,0,4.062.238,34.174,34.174,0,0,0,4.066-.244,19.817,19.817,0,0,1,.651,3.814Zm9.433,2.38a19.854,19.854,0,0,1-.654,3.808,34.825,34.825,0,0,0-8.128,0,19.822,19.822,0,0,1-.651-3.808ZM16.675,3.149a28.739,28.739,0,0,1,3.316,6.187,31.493,31.493,0,0,1-3.316.176,31.731,31.731,0,0,1-3.313-.177A28.966,28.966,0,0,1,16.675,3.149ZM5.978,7.226c.28-.317.571-.622.876-.911.075-.071.154-.139.23-.208q.44-.4.911-.765c.082-.063.165-.119.249-.186q.485-.357,1-.672l.238-.144q.541-.316,1.109-.584c.069-.032.137-.068.206-.1q.593-.268,1.208-.476c.062-.023.119-.048.187-.069.413-.138.833-.252,1.261-.357.067-.015.131-.037.2-.051.163-.036.332-.052.5-.082a30.258,30.258,0,0,0-3.2,6.358,19.958,19.958,0,0,1-5.075-1.63C5.9,7.305,5.942,7.267,5.978,7.226ZM4.464,9.29a21.378,21.378,0,0,0,5.785,1.973,22.2,22.2,0,0,0-.665,4.2H2.457A14.16,14.16,0,0,1,4.464,9.29Zm0,14.724a14.158,14.158,0,0,1-2.007-6.172H9.584a22.2,22.2,0,0,0,.666,4.2A21.377,21.377,0,0,0,4.464,24.014ZM13.648,30.6c-.067-.015-.131-.037-.2-.052a12.8,12.8,0,0,1-1.261-.357c-.063-.021-.125-.046-.187-.069q-.614-.214-1.208-.476c-.069-.032-.137-.068-.206-.1q-.568-.27-1.109-.584l-.238-.144q-.514-.314-1-.672c-.083-.061-.167-.119-.249-.186a10.856,10.856,0,0,1-.911-.765c-.076-.069-.155-.137-.23-.208-.3-.289-.595-.595-.876-.911-.036-.042-.074-.08-.109-.119a19.959,19.959,0,0,1,5.075-1.63,30.256,30.256,0,0,0,3.2,6.356C13.98,30.655,13.811,30.638,13.648,30.6Zm3.027-.447a28.739,28.739,0,0,1-3.316-6.187,30.977,30.977,0,0,1,6.63,0h0A28.959,28.959,0,0,1,16.675,30.155Zm10.7-4.077c-.28.317-.571.622-.876.911-.075.071-.154.139-.23.208q-.44.4-.911.765c-.082.063-.165.125-.249.186q-.485.357-1,.672l-.238.144q-.54.315-1.109.584c-.069.032-.137.068-.206.1q-.593.268-1.208.476c-.062.023-.119.048-.187.069-.413.138-.833.252-1.261.357-.067.015-.131.037-.2.051-.163.036-.332.052-.5.082a30.253,30.253,0,0,0,3.2-6.356,19.958,19.958,0,0,1,5.075,1.63C27.446,26,27.408,26.037,27.372,26.078Zm1.514-2.064A21.378,21.378,0,0,0,23.1,22.041a22.2,22.2,0,0,0,.665-4.2h7.127A14.161,14.161,0,0,1,28.886,24.014Z" transform="translate(-0.016 0.002)" fill="#04458f"/>
    </g>
  </g>
</svg>
