<svg xmlns="http://www.w3.org/2000/svg" width="52" height="52" viewBox="0 0 52 52">
  <g id="_2.Institute" data-name="2.Institute" transform="translate(-32 -294)">
    <g id="Group_4" data-name="Group 4" transform="translate(32 294)">
      <rect id="Rectangle" width="52" height="52" rx="8" fill="#ebf2f9"/>
    </g>
    <g id="_2.About_institute" data-name="2.About institute" transform="translate(33.172 305)">
      <g id="Group_1186" data-name="Group 1186" transform="translate(10.828)">
        <path id="Path_2162" data-name="Path 2162" d="M37.876,26.6V13.246a1.262,1.262,0,0,0-1.262-1.262H30.62V8.35a.947.947,0,0,0-.486-.827L25.268,4.809c-.027-.015-.055-.028-.082-.04V3.22h2.621a.379.379,0,0,0,.379-.379V.929A.379.379,0,0,0,27.806.55H25.186V.379a.379.379,0,1,0-.757,0v4.39c-.028.012-.056.025-.082.04L19.479,7.523a.946.946,0,0,0-.486.827v3.634H13a1.262,1.262,0,0,0-1.262,1.262V26.6a1.546,1.546,0,0,0,.637,2.955H37.239a1.546,1.546,0,0,0,.637-2.955ZM33,16.384a.735.735,0,0,1,.736-.735h1.375a.735.735,0,0,1,.735.735v1.375a.735.735,0,0,1-.735.735H33.733A.735.735,0,0,1,33,17.758V16.384ZM33,20.8a.735.735,0,0,1,.736-.735h1.375a.735.735,0,0,1,.735.735v1.375a.735.735,0,0,1-.735.735H33.733A.735.735,0,0,1,33,22.176V20.8ZM28.58,16.384a.735.735,0,0,1,.735-.735H30.69a.735.735,0,0,1,.735.735v1.375a.735.735,0,0,1-.735.735H29.315a.735.735,0,0,1-.735-.735Zm0,4.418a.735.735,0,0,1,.735-.735H30.69a.735.735,0,0,1,.735.735v1.375a.735.735,0,0,1-.735.735H29.315a.735.735,0,0,1-.735-.735ZM24.807,8.353a2.083,2.083,0,1,1-2.083,2.083A2.083,2.083,0,0,1,24.807,8.353ZM22.721,20.309a.735.735,0,0,1,.735-.735h2.7a.735.735,0,0,1,.735.735V26.1a.73.73,0,0,1-.1.364H22.819a.73.73,0,0,1-.1-.364V20.309Zm-4.533-3.925a.735.735,0,0,1,.735-.735H20.3a.735.735,0,0,1,.735.735v1.375a.735.735,0,0,1-.735.735H18.923a.735.735,0,0,1-.735-.735Zm0,4.418a.735.735,0,0,1,.735-.735H20.3a.735.735,0,0,1,.735.735v1.375a.735.735,0,0,1-.735.735H18.923a.735.735,0,0,1-.735-.735ZM13.77,16.384a.735.735,0,0,1,.735-.735h1.375a.735.735,0,0,1,.735.735v1.375a.735.735,0,0,1-.735.735H14.506a.735.735,0,0,1-.735-.735V16.384Zm0,4.418a.735.735,0,0,1,.735-.735h1.375a.735.735,0,0,1,.735.735v1.375a.735.735,0,0,1-.735.735H14.506a.735.735,0,0,1-.735-.735V20.8Z" transform="translate(-10.828)" fill="#04458f"/>
      </g>
    </g>
  </g>
</svg>
