<svg xmlns="http://www.w3.org/2000/svg" width="27.5" height="28.24" viewBox="0 0 27.5 28.24">
  <g id="_23.blackboard" data-name="23.blackboard" transform="translate(-12.9)">
    <path id="Path_2220" data-name="Path 2220" d="M454.8,1.148a1.148,1.148,0,0,0-2.3,0v.938h2.3Z" transform="translate(-426.984)" fill="#04458f"/>
    <path id="Path_2221" data-name="Path 2221" d="M40.4,131.322a1.723,1.723,0,0,0-1.722-1.722H14.622a1.723,1.723,0,0,0-1.722,1.722v12.7a1.723,1.723,0,0,0,1.722,1.722H38.678a1.723,1.723,0,0,0,1.722-1.722v-12.7Z" transform="translate(0 -125.881)" fill="#04458f"/>
    <path id="Path_2222" data-name="Path 2222" d="M119.673,753.148A1.148,1.148,0,0,0,118.619,752c-.032,0-.063,0-.095,0H98.148l-.095,0a1.149,1.149,0,0,0,.095,2.293h2.379l-1.438,2.669a1.149,1.149,0,0,0,2.023,1.091l2.023-3.76h4.07v3.214a1.148,1.148,0,1,0,2.3,0V754.3h4.041l2.023,3.76a1.147,1.147,0,0,0,1.013.6,1.121,1.121,0,0,0,.542-.138,1.149,1.149,0,0,0,.468-1.556l-1.438-2.669h2.379A1.148,1.148,0,0,0,119.673,753.148Z" transform="translate(-81.686 -730.418)" fill="#04458f"/>
  </g>
</svg>
