<svg xmlns="http://www.w3.org/2000/svg" width="32" height="32" viewBox="0 0 32 32">
  <g id="Group_1282" data-name="Group 1282" transform="translate(-46 -389)">
    <g id="Group_1273" data-name="Group 1273" transform="translate(-892 -3100)">
      <rect id="Rectangle" width="32" height="32" rx="6" transform="translate(938 3489)" fill="#ebf2f9"/>
    </g>
    <g id="_18.calendar" data-name="18.calendar" transform="translate(47 545)">
      <g id="Group_1264" data-name="Group 1264" transform="translate(5 -150)">
        <g id="Group_1263" data-name="Group 1263">
          <path id="Path_2211" data-name="Path 2211" d="M18.667,13.355a.759.759,0,0,0,.759-.759V4.553a3.039,3.039,0,0,0-3.035-3.035H15.4V.759a.759.759,0,1,0-1.518,0v.759H10.434V.759a.759.759,0,1,0-1.518,0v.759H5.5V.759a.759.759,0,1,0-1.518,0v.759H3.035A3.039,3.039,0,0,0,0,4.553V16.391a3.039,3.039,0,0,0,3.035,3.035H16.391a3.039,3.039,0,0,0,3.035-3.035.759.759,0,0,0-1.518,0,1.519,1.519,0,0,1-1.518,1.518H3.035a1.519,1.519,0,0,1-1.518-1.518V4.553A1.519,1.519,0,0,1,3.035,3.035h.949v.759a.759.759,0,0,0,1.518,0V3.035H8.916v.759a.759.759,0,0,0,1.518,0V3.035h3.453v.759a.759.759,0,0,0,1.518,0V3.035h.986a1.519,1.519,0,0,1,1.518,1.518V12.6A.759.759,0,0,0,18.667,13.355Z" fill="#04458f"/>
          <path id="Path_2212" data-name="Path 2212" d="M140.11,201.315l-3.74,5.224a.434.434,0,0,1-.624.032l-2.421-2.325a.759.759,0,0,0-1.051,1.095l2.424,2.327a1.957,1.957,0,0,0,1.346.538q.064,0,.129,0a1.956,1.956,0,0,0,1.391-.725l.026-.034,3.755-5.246a.759.759,0,1,0-1.234-.883Z" transform="translate(-127.03 -193.372)" fill="#04458f"/>
        </g>
      </g>
    </g>
  </g>
</svg>
