<svg xmlns="http://www.w3.org/2000/svg" width="23.676" height="23.676" viewBox="0 0 23.676 23.676">
  <g id="Component_8_2" data-name="Component 8 – 2" transform="translate(0)">
    <path id="Path_2349" data-name="Path 2349" d="M-482.486,32.514a11.76,11.76,0,0,1-8.371-3.467,11.76,11.76,0,0,1-3.467-8.371,11.76,11.76,0,0,1,3.467-8.371,11.76,11.76,0,0,1,8.371-3.467,11.76,11.76,0,0,1,8.371,3.467,11.76,11.76,0,0,1,3.467,8.371,11.775,11.775,0,0,1-3.471,8.367,11.775,11.775,0,0,1-8.366,3.471Zm0-22.534a10.708,10.708,0,0,0-10.7,10.7,10.708,10.708,0,0,0,10.7,10.7,10.708,10.708,0,0,0,10.7-10.7,10.726,10.726,0,0,0-10.7-10.7Z" transform="translate(494.324 -8.838)" fill="#fff"/>
    <path id="Path_2350" data-name="Path 2350" d="M-388.715,161.1a7.126,7.126,0,0,1-7.121-7.112,7.163,7.163,0,0,1,2.1-5.053.57.57,0,0,1,.4-.162.566.566,0,0,1,.411.175.569.569,0,0,1,0,.793,5.987,5.987,0,0,0-.028,8.459,5.938,5.938,0,0,0,4.241,1.764,5.941,5.941,0,0,0,4.215-1.738A5.94,5.94,0,0,0-382.736,154a5.94,5.94,0,0,0-1.739-4.233l-.025-.025a.565.565,0,0,1-.172-.4.567.567,0,0,1,.159-.407.574.574,0,0,1,.411-.175.568.568,0,0,1,.4.159l.014.014a7.124,7.124,0,0,1,.03,10.061,7.163,7.163,0,0,1-5.048,2.1Z" transform="translate(400.553 -142.06)" fill="#fff"/>
    <path id="Path_2351" data-name="Path 2351" d="M-258.51,100.648a.572.572,0,0,1-.571-.571V92.436a.571.571,0,0,1,.571-.571.571.571,0,0,1,.571.571v7.641A.572.572,0,0,1-258.51,100.648Z" transform="translate(270.348 -87.889)" fill="#fff"/>
  </g>
</svg>
