<svg xmlns="http://www.w3.org/2000/svg" width="52" height="52" viewBox="0 0 52 52">
  <g id="Group_1495" data-name="Group 1495" transform="translate(-32 -294)">
    <g id="Group_4" data-name="Group 4" transform="translate(32 294)">
      <rect id="Rectangle" width="52" height="52" rx="8" fill="#ebf2f9"/>
    </g>
    <g id="_44.exam_routine" data-name="44.exam routine" transform="translate(47 309)">
      <g id="Group_1397" data-name="Group 1397" transform="translate(4.693)">
        <g id="Group_1396" data-name="Group 1396">
          <path id="Path_2280" data-name="Path 2280" d="M113.3,1.328h-1.992a1.328,1.328,0,1,0-2.656,0h-1.992a.7.7,0,0,0-.664.708V2.7a1.328,1.328,0,0,0,1.328,1.328h5.313A1.328,1.328,0,0,0,113.969,2.7V2.036A.7.7,0,0,0,113.3,1.328Z" transform="translate(-106)" fill="#04458f"/>
        </g>
      </g>
      <g id="Group_1399" data-name="Group 1399" transform="translate(0 2.701)">
        <g id="Group_1398" data-name="Group 1398">
          <path id="Path_2281" data-name="Path 2281" d="M15.362,61H14.034a2.7,2.7,0,0,1-2.7,2.656H6.021A2.659,2.659,0,0,1,3.365,61H2.036A2.033,2.033,0,0,0,0,62.992V78.93a2.071,2.071,0,0,0,2.036,2.036H15.362a2.033,2.033,0,0,0,1.992-2.036V62.992A1.994,1.994,0,0,0,15.362,61ZM2.9,66.118a.664.664,0,0,1,.939-.939l.859.859.859-.859a.664.664,0,0,1,.939.939l-.859.859.859.859a.664.664,0,0,1-.939.939l-.859-.859-.859.859a.664.664,0,0,1-.939-.939l.859-.859Zm4.923,9.3L5.162,78.071a.664.664,0,0,1-.939,0L2.9,76.743a.664.664,0,1,1,.939-.939l.859.859L6.88,74.476a.664.664,0,0,1,.939.939Zm0-4.649L5.162,73.423a.664.664,0,0,1-.939,0L2.9,72.095a.664.664,0,1,1,.939-.939l.859.859L6.88,69.827a.664.664,0,0,1,.939.939Zm6.215,6.171H10.005a.664.664,0,0,1,0-1.328h4.029a.664.664,0,0,1,0,1.328Zm0-4.649H10.005a.664.664,0,1,1,0-1.328h4.029a.664.664,0,1,1,0,1.328Zm0-4.648H10.005a.664.664,0,1,1,0-1.328h4.029a.664.664,0,1,1,0,1.328Z" transform="translate(0 -61)" fill="#04458f"/>
        </g>
      </g>
      <g id="Group_1401" data-name="Group 1401" transform="translate(18.683 4.029)">
        <g id="Group_1400" data-name="Group 1400">
          <path id="Path_2282" data-name="Path 2282" d="M423.992,91A1.994,1.994,0,0,0,422,92.992v1.992h3.984V92.992A1.994,1.994,0,0,0,423.992,91Z" transform="translate(-422 -91)" fill="#04458f"/>
        </g>
      </g>
      <g id="Group_1404" data-name="Group 1404" transform="translate(18.683 9.341)">
        <g id="Group_1403" data-name="Group 1403">
          <g id="Group_1402" data-name="Group 1402">
            <path id="Path_2283" data-name="Path 2283" d="M422,369.789Z" transform="translate(-422 -362.759)" fill="#04458f"/>
            <path id="Path_2284" data-name="Path 2284" d="M422,211v7.03l.195-.195a2.546,2.546,0,0,1,3.6,0l.195.195V211Z" transform="translate(-422.001 -211)" fill="#04458f"/>
          </g>
        </g>
      </g>
      <g id="Group_1406" data-name="Group 1406" transform="translate(19.057 16.761)">
        <g id="Group_1405" data-name="Group 1405">
          <path id="Path_2285" data-name="Path 2285" d="M432.926,378.94a1.216,1.216,0,0,0-1.717,0l-.76.76.988,2.966a.664.664,0,0,0,1.259,0l.989-2.965Z" transform="translate(-430.449 -378.585)" fill="#04458f"/>
        </g>
      </g>
    </g>
  </g>
</svg>
