<svg xmlns="http://www.w3.org/2000/svg" width="32" height="32" viewBox="0 0 32 32">
  <g id="Group_1272" data-name="Group 1272" transform="translate(-938 -3489)">
    <rect id="Rectangle" width="32" height="32" rx="6" transform="translate(938 3489)" fill="#ebf2f9"/>
    <g id="_15.smartphone" data-name="15.smartphone" transform="translate(389.308 3497)">
      <g id="Group_1262" data-name="Group 1262" transform="translate(558.692 -3)">
        <path id="Path_2203" data-name="Path 2203" d="M123.468,0h-7.437a2.337,2.337,0,0,0-2.339,2.295V19.722a2.315,2.315,0,0,0,2.316,2.292l7.449-.008a2.3,2.3,0,0,0,2.3-2.293l.011-17.42A2.3,2.3,0,0,0,123.468,0Zm-4.793,1.376h2.158a.344.344,0,1,1,0,.688h-2.158a.344.344,0,0,1,0-.688Zm-1.3.109a.356.356,0,0,1,.487,0,.345.345,0,0,1-.243.588.352.352,0,0,1-.244-.1.347.347,0,0,1,0-.487Zm2.306,19.847a1.029,1.029,0,1,1,1.029-1.029A1.031,1.031,0,0,1,119.684,21.332Zm5.015-2.758h-9.8V3.268h9.8Z" transform="translate(-113.692)" fill="#04458f"/>
      </g>
    </g>
  </g>
</svg>
