<svg xmlns="http://www.w3.org/2000/svg" width="52" height="52" viewBox="0 0 52 52">
  <g id="Group_1496" data-name="Group 1496" transform="translate(-32 -374)">
    <g id="Group_4" data-name="Group 4" transform="translate(32 374)">
      <rect id="Rectangle" width="52" height="52" rx="8" fill="#ebf2f9"/>
    </g>
    <g id="_34.waiting-place" data-name="34.waiting-place" transform="translate(42 317.087)">
      <path id="Path_2241" data-name="Path 2241" d="M9.5,74.635v3.082a.716.716,0,0,1-.716.716H2.77a.716.716,0,0,1-.716-.716V74.635a3.722,3.722,0,0,1,7.444,0Zm6.4-3.722a3.726,3.726,0,0,0-3.722,3.722v3.082a.716.716,0,0,0,.716.716H18.9a.716.716,0,0,0,.716-.716V74.635A3.726,3.726,0,0,0,15.9,70.913Zm10.122,0A3.726,3.726,0,0,0,22.3,74.635v3.082a.716.716,0,0,0,.716.716h6.012a.716.716,0,0,0,.716-.716V74.635A3.726,3.726,0,0,0,26.02,70.913ZM31.081,74.9a.716.716,0,0,0-.716.716v3.4h-8.69v-3.4a.716.716,0,1,0-1.431,0v3.4h-8.69v-3.4a.716.716,0,1,0-1.431,0v3.4H1.431v-3.4a.716.716,0,1,0-1.431,0v6.279a.716.716,0,0,0,1.431,0V80.442h8.691v1.451a.716.716,0,0,0,1.431,0V80.442h8.69v1.451a.716.716,0,0,0,1.431,0V80.442h8.69v1.451a.716.716,0,0,0,1.431,0V75.614A.716.716,0,0,0,31.081,74.9Zm-25.3,8.747a3.726,3.726,0,0,0-3.722,3.722v3.082a.716.716,0,0,0,.716.716H8.783a.716.716,0,0,0,.716-.716V87.367A3.726,3.726,0,0,0,5.777,83.646Zm10.122,0a3.726,3.726,0,0,0-3.722,3.722v3.082a.716.716,0,0,0,.716.716H18.9a.716.716,0,0,0,.716-.716V87.367A3.726,3.726,0,0,0,15.9,83.646Zm10.122,0A3.726,3.726,0,0,0,22.3,87.367v3.082a.716.716,0,0,0,.716.716h6.012a.716.716,0,0,0,.716-.716V87.367A3.726,3.726,0,0,0,26.02,83.646Zm5.061,3.986a.716.716,0,0,0-.716.716v3.4h-8.69v-3.4a.716.716,0,1,0-1.431,0v3.4h-8.69v-3.4a.716.716,0,1,0-1.431,0v3.4H1.431v-3.4a.716.716,0,1,0-1.431,0v6.279a.716.716,0,0,0,1.431,0V93.174h8.691v1.451a.716.716,0,1,0,1.431,0V93.174h8.69v1.451a.716.716,0,1,0,1.431,0V93.174h8.69v1.451a.716.716,0,1,0,1.431,0V88.347A.716.716,0,0,0,31.081,87.631Z" transform="translate(0 0)" fill="#04458f"/>
    </g>
  </g>
</svg>
