<svg xmlns="http://www.w3.org/2000/svg" width="52" height="52" viewBox="0 0 52 52">
  <g id="Group_1487" data-name="Group 1487" transform="translate(-32 -455)">
    <rect id="Rectangle" width="52" height="52" rx="8" transform="translate(32 455)" fill="#ebf2f9"/>
    <g id="_13.Programme_offer" data-name="13.Programme offer" transform="translate(34.737 467)">
      <g id="Group_1208" data-name="Group 1208" transform="translate(14.198 0.26)">
        <g id="Group_1207" data-name="Group 1207">
          <circle id="Ellipse_97" data-name="Ellipse 97" cx="2.324" cy="2.324" r="2.324" fill="#04458f"/>
        </g>
      </g>
      <g id="Group_1210" data-name="Group 1210" transform="translate(18.283 5.648)">
        <g id="Group_1209" data-name="Group 1209">
          <path id="Path_2195" data-name="Path 2195" d="M176.778,111.186c-.018-.05-1.849-5.059-2.655-7.4-.52-1.514-1.392-2.281-2.592-2.281h-.181a2.535,2.535,0,0,1,.655,1.061,1.492,1.492,0,0,1,1,1.408v3.391c.8,2.233,1.651,4.561,1.664,4.6a1.121,1.121,0,1,0,2.106-.77Z" transform="translate(-171.35 -101.5)" fill="#04458f"/>
        </g>
      </g>
      <g id="Group_1212" data-name="Group 1212" transform="translate(9.263 5.648)">
        <g id="Group_1211" data-name="Group 1211" transform="translate(0)">
          <path id="Path_2196" data-name="Path 2196" d="M14.579,101.5c-1.2,0-2.072.768-2.592,2.281-.806,2.346-2.637,7.354-2.655,7.4a1.121,1.121,0,1,0,2.106.77c.013-.034.864-2.363,1.663-4.6V103.97a1.492,1.492,0,0,1,1-1.408,2.535,2.535,0,0,1,.655-1.061Z" transform="translate(-9.263 -101.5)" fill="#04458f"/>
        </g>
      </g>
      <g id="Group_1214" data-name="Group 1214" transform="translate(12.062 12.971)">
        <g id="Group_1213" data-name="Group 1213">
          <path id="Path_2197" data-name="Path 2197" d="M68.463,238.392c-.471-2.43-.8-4.119-1.028-5.3v.262a1.492,1.492,0,0,1-1.49,1.49H62.085a1.492,1.492,0,0,1-1.49-1.49v-.263c-.229,1.181-.557,2.87-1.028,5.3a.624.624,0,0,0,.611.742h.856v8.133a1.345,1.345,0,1,0,2.691,0v-8.133h.581v8.133a1.345,1.345,0,0,0,2.691,0v-8.133h.855A.623.623,0,0,0,68.463,238.392Z" transform="translate(-59.555 -233.091)" fill="#04458f"/>
        </g>
      </g>
      <g id="Group_1216" data-name="Group 1216" transform="translate(13.937 5.768)">
        <g id="Group_1215" data-name="Group 1215">
          <path id="Path_2198" data-name="Path 2198" d="M97.759,105.343h-.235a1.7,1.7,0,0,0-3.391,0H93.9a.654.654,0,0,0-.654.654v5.116a.654.654,0,0,0,.654.654h3.861a.654.654,0,0,0,.654-.654V106A.654.654,0,0,0,97.759,105.343Zm-2.131-.836h.4a.861.861,0,0,1,.659.836h-1.72A.861.861,0,0,1,95.628,104.507Zm1.11,5.664h-1.82a.557.557,0,1,1,0-1.114h1.82a.557.557,0,0,1,0,1.114Z" transform="translate(-93.244 -103.647)" fill="#04458f"/>
        </g>
      </g>
      <g id="Group_1218" data-name="Group 1218" transform="translate(28.622 0)">
        <g id="Group_1217" data-name="Group 1217" transform="translate(0 0)">
          <circle id="Ellipse_98" data-name="Ellipse 98" cx="2.345" cy="2.345" r="2.345" fill="#04458f"/>
        </g>
      </g>
      <g id="Group_1220" data-name="Group 1220" transform="translate(32.531 5.438)">
        <g id="Group_1219" data-name="Group 1219">
          <path id="Path_2199" data-name="Path 2199" d="M431.587,100.378a2.7,2.7,0,0,0-2.719-2.664h-1.473a2.538,2.538,0,0,1,.853,1.234l.016.006a1.565,1.565,0,0,1,1.062,1.521V108.7a1.131,1.131,0,1,0,2.263,0v-8.318Z" transform="translate(-427.394 -97.714)" fill="#04458f"/>
        </g>
      </g>
      <g id="Group_1222" data-name="Group 1222" transform="translate(27.965 14.235)">
        <g id="Group_1221" data-name="Group 1221">
          <path id="Path_2200" data-name="Path 2200" d="M350.263,256.259H346.4a1.5,1.5,0,0,1-1.072-.451v12.9a1.355,1.355,0,1,0,2.71,0V257.854h.586v10.853a1.355,1.355,0,1,0,2.71,0v-12.9A1.5,1.5,0,0,1,350.263,256.259Z" transform="translate(-345.33 -255.808)" fill="#04458f"/>
        </g>
      </g>
      <g id="Group_1224" data-name="Group 1224" transform="translate(25.211 5.438)">
        <g id="Group_1223" data-name="Group 1223">
          <path id="Path_2201" data-name="Path 2201" d="M298.56,97.713a2.7,2.7,0,0,0-2.719,2.664V108.7a1.132,1.132,0,0,0,2.263,0v-8.088a1.562,1.562,0,0,1,1.078-1.664,2.54,2.54,0,0,1,.851-1.231H298.56Z" transform="translate(-295.841 -97.713)" fill="#04458f"/>
        </g>
      </g>
      <g id="Group_1226" data-name="Group 1226" transform="translate(28.383 5.73)">
        <g id="Group_1225" data-name="Group 1225">
          <path id="Path_2202" data-name="Path 2202" d="M357.352,104.661h-.235a1.7,1.7,0,0,0-3.391,0h-.235a.655.655,0,0,0-.655.654v5.116a.655.655,0,0,0,.655.654h3.861a.654.654,0,0,0,.654-.654v-5.116A.654.654,0,0,0,357.352,104.661Zm-2.131-.836h.4a.861.861,0,0,1,.659.836h-1.72A.861.861,0,0,1,355.221,103.825Zm1.11,5.664h-1.82a.557.557,0,0,1,0-1.114h1.82a.557.557,0,1,1,0,1.114Z" transform="translate(-352.837 -102.965)" fill="#04458f"/>
        </g>
      </g>
    </g>
  </g>
</svg>
