<svg xmlns="http://www.w3.org/2000/svg" width="52" height="52" viewBox="0 0 52 52">
  <g id="_4.Shift" data-name="4.Shift" transform="translate(-32 -455)">
    <rect id="Rectangle" width="52" height="52" rx="8" transform="translate(32 455)" fill="#ebf2f9"/>
    <g id="_4.Shift-2" data-name="4.Shift" transform="translate(44 432.79)">
      <path id="Path_2166" data-name="Path 2166" d="M25.613,81.2A6.57,6.57,0,1,0,12.985,77.57c-.163-.016-.326-.024-.488-.024a5.063,5.063,0,0,0-4.838,3.6A5.044,5.044,0,1,0,6.515,91.1H24.244a5.042,5.042,0,0,0,1.369-9.9Z" transform="translate(-1.336 -32.469)" fill="#04458f"/>
      <path id="Path_2167" data-name="Path 2167" d="M.928,47.3l.394-.215A6.376,6.376,0,0,1,4.3,46.335h0c.015,0,.029.007.044.007l.258.008.127-.225A6.393,6.393,0,0,1,9.6,42.917l.245-.026.105-.223a7.892,7.892,0,0,1,1.8-2.448l.307-.283-.267-.321A6.665,6.665,0,0,0,0,43.876,6.593,6.593,0,0,0,.725,46.9Z" fill="#04458f"/>
    </g>
  </g>
</svg>
