<svg xmlns="http://www.w3.org/2000/svg" width="52" height="52" viewBox="0 0 52 52">
  <g id="_6.Semester" data-name="6.Semester" transform="translate(-32 -617)">
    <g id="Group_4" data-name="Group 4" transform="translate(32 617)">
      <rect id="Rectangle" width="52" height="52" rx="8" fill="#ebf2f9"/>
    </g>
    <g id="Group_1187" data-name="Group 1187">
      <path id="Path_2171" data-name="Path 2171" d="M13.154,19.151a.878.878,0,0,1-.352-.073l-7.281-3.2a.875.875,0,0,1,0-1.6l7.281-3.2a.88.88,0,0,1,.7,0l7.281,3.2a.875.875,0,0,1,0,1.6l-7.281,3.2A.878.878,0,0,1,13.154,19.151Z" transform="translate(44.824 631.049)" fill="#04458f"/>
      <path id="Path_2172" data-name="Path 2172" d="M13.88,19.6a2.629,2.629,0,0,1-2.106,0L7,17.5v.8a2.044,2.044,0,0,0,.969,1.742,9.287,9.287,0,0,0,4.855,1.528,9.3,9.3,0,0,0,4.855-1.528,2.043,2.043,0,0,0,.969-1.742v-.8Z" transform="translate(45.154 632.122)" fill="#04458f"/>
      <path id="Path_2173" data-name="Path 2173" d="M24.463,3.495H23.3V1.165A1.165,1.165,0,0,0,22.133,0H20.968A1.165,1.165,0,0,0,19.8,1.165v2.33H8.154V1.165A1.165,1.165,0,0,0,6.989,0H5.824A1.165,1.165,0,0,0,4.66,1.165v2.33H3.495A3.5,3.5,0,0,0,0,6.989V24.463a3.5,3.5,0,0,0,3.495,3.495H24.463a3.5,3.5,0,0,0,3.495-3.495V6.989A3.5,3.5,0,0,0,24.463,3.495Zm0,22.133H3.495A1.165,1.165,0,0,1,2.33,24.463V10.531h23.3V24.463A1.165,1.165,0,0,1,24.463,25.628Z" transform="translate(44 629)" fill="#04458f"/>
    </g>
  </g>
</svg>
