<svg xmlns="http://www.w3.org/2000/svg" width="52" height="52" viewBox="0 0 52 52">
  <g id="_11.Classes" data-name="11.Classes" transform="translate(-32 -1021)">
    <g id="Group_4" data-name="Group 4" transform="translate(32 1021)">
      <rect id="Rectangle" width="52" height="52" rx="8" fill="#ebf2f9"/>
    </g>
    <g id="Group_1194" data-name="Group 1194" transform="translate(44 1036)">
      <path id="Path_2188" data-name="Path 2188" d="M26,43.361c-.113-.851-.129-2.317.661-2.809a.3.3,0,0,0,.037-.033c.646-.207,1.094-.5.743-.887l-9.535-2.873L2.47,38.9S.7,39.157.86,41.9a3.549,3.549,0,0,0,.965,2.59l-1.267.382c-.352.39.1.681.742.887a.256.256,0,0,0,.037.034c.79.493.775,1.959.661,2.81C-.841,49.412.178,49.675.178,49.675l.623.151A3.021,3.021,0,0,0,.009,52.4c.158,2.746,1.61,2.936,1.61,2.936l10.1,3.284,15.249-3.694s1.019-.263-1.82-1.069c-.114-.85-.13-2.316.662-2.81a.233.233,0,0,0,.037-.033c.646-.207,1.093-.5.742-.887l-.663-.2c.442-.267,1.106-.963,1.21-2.773a3.212,3.212,0,0,0-.629-2.4l1.31-.317S28.841,44.167,26,43.361Zm-12.755-.035,2.564-.527,8.666-1.781,1.291-.266a4.47,4.47,0,0,0-.327,2.453c.015.15.032.287.049.392l-1.413.351L13.139,46.669ZM2.231,46l1.291.266,8.323,1.711.727.149h0l2.18.448.108,3.343-11.242-2.8L2.51,48.843c.016-.1.034-.241.049-.392A4.471,4.471,0,0,0,2.231,46Zm-.5-4.227a2.168,2.168,0,0,1,.378-1.528.686.686,0,0,1,.5-.207.849.849,0,0,1,.127.01l6.652,2.169L12.706,43.3,12.6,46.664l-9.311-2.61-.491-.138a.3.3,0,0,0-.061-.009C2.7,43.9,1.775,43.819,1.73,41.772ZM11.747,57.156l-9.8-2.748a.292.292,0,0,0-.061-.01c-.039,0-.96-.087-1-2.135a2.17,2.17,0,0,1,.378-1.528.687.687,0,0,1,.5-.207.885.885,0,0,1,.127.01h0l9.97,3.251ZM24.591,53.7c.015.151.033.288.049.392L12.288,57.161l.108-3.343,2.641-.543.39.094,1.462-.475,6.738-1.385,1.292-.266A4.466,4.466,0,0,0,24.591,53.7Zm.68-4.544a.237.237,0,0,0-.066.01l-.932.261L15.4,51.911l-.108-3.367,2.91-.949,7.047-2.3a.734.734,0,0,1,.642.193,2.171,2.171,0,0,1,.378,1.528C26.225,49.065,25.3,49.15,25.271,49.152Z" transform="translate(0.001 -36.758)" fill="#04458f"/>
    </g>
  </g>
</svg>
