<svg xmlns="http://www.w3.org/2000/svg" width="52" height="52" viewBox="0 0 52 52">
  <g id="_5.Section" data-name="5.Section" transform="translate(-32 -535.746)">
    <rect id="Rectangle" width="52" height="52" rx="8" transform="translate(32 535.746)" fill="#ebf2f9"/>
    <g id="_5.sections" data-name="5.sections" transform="translate(44 548)">
      <path id="Path_2168" data-name="Path 2168" d="M24.667,13h-10.5A1.167,1.167,0,0,0,13,14.167v10.5a1.167,1.167,0,0,0,1.167,1.167h10.5a1.167,1.167,0,0,0,1.167-1.167v-10.5A1.167,1.167,0,0,0,24.667,13Z" transform="translate(2.167 2.167)" fill="#04458f"/>
      <path id="Path_2169" data-name="Path 2169" d="M24.667,0h-10.5A1.167,1.167,0,0,0,13,1.167v10.5a1.167,1.167,0,0,0,1.167,1.167h10.5a1.167,1.167,0,0,0,1.167-1.167V1.167A1.167,1.167,0,0,0,24.667,0Z" transform="translate(2.167)" fill="#04458f"/>
      <path id="Path_2170" data-name="Path 2170" d="M1.167,28h10.5a1.167,1.167,0,0,0,1.167-1.167V1.167A1.167,1.167,0,0,0,11.667,0H1.167A1.167,1.167,0,0,0,0,1.167V26.833A1.167,1.167,0,0,0,1.167,28Z" fill="#04458f"/>
    </g>
  </g>
</svg>
