<svg xmlns="http://www.w3.org/2000/svg" width="52.458" height="53.936" viewBox="0 0 52.458 53.936">
  <g id="Group_1484" data-name="Group 1484" transform="translate(-32 -211)">
    <g id="Group_1373" data-name="Group 1373">
      <g id="Group_4" data-name="Group 4" transform="translate(32 211)">
        <rect id="Rectangle" width="52.458" height="53.936" rx="8" fill="#ebf2f9"/>
      </g>
    </g>
    <g id="_55.settings" data-name="55.settings" transform="translate(46.441 226)">
      <path id="Path_2330" data-name="Path 2330" d="M22.963,14.676l0,0-1.537-1.413a10.072,10.072,0,0,0,0-2.518l1.542-1.417a1.516,1.516,0,0,0,.279-1.854l-1.7-2.935a1.507,1.507,0,0,0-1.756-.682l-2,.63A9.206,9.206,0,0,0,15.62,3.22l-.462-2.048A1.5,1.5,0,0,0,13.7,0H10.3A1.5,1.5,0,0,0,8.843,1.17L8.38,3.22A9.206,9.206,0,0,0,6.2,4.483l-2-.63a1.5,1.5,0,0,0-1.751.677L.755,7.475a1.517,1.517,0,0,0,.287,1.854l1.537,1.413a10.064,10.064,0,0,0,0,2.517L1.037,14.676A1.516,1.516,0,0,0,.758,16.53l1.7,2.935a1.506,1.506,0,0,0,1.756.682l1.995-.63A9.205,9.205,0,0,0,8.38,20.78l.462,2.048A1.5,1.5,0,0,0,10.3,24h3.4a1.5,1.5,0,0,0,1.457-1.17l.463-2.05a9.171,9.171,0,0,0,2.175-1.263l2,.63a1.505,1.505,0,0,0,1.751-.678l1.7-2.945a1.513,1.513,0,0,0-.282-1.848ZM12,17.5A5.5,5.5,0,1,1,17.5,12,5.506,5.506,0,0,1,12,17.5Z" fill="#04458f"/>
      <g id="Group_1446" data-name="Group 1446">
        <path id="Path_2331" data-name="Path 2331" d="M13.75,14.75a1,1,0,0,1-.707-.293l-1.75-1.75A1,1,0,0,1,11,12V9.25a1,1,0,0,1,2,0v2.336l1.457,1.457a1,1,0,0,1-.707,1.707Z" fill="#04458f"/>
      </g>
    </g>
  </g>
</svg>
